<svg xmlns="http://www.w3.org/2000/svg" xmlns:xlink="http://www.w3.org/1999/xlink" viewBox="0 0 1080 1920">
  <defs>
    <style>
      .cls-1 {
        fill: #fff;
        stroke: #707070;
      }

      .cls-2 {
        clip-path: url(#clip-path);
      }

      .cls-3 {
        fill: #ededed;
      }
    </style>
    <clipPath id="clip-path">
      <rect id="Rectangle_2830" data-name="Rectangle 2830" class="cls-1" width="1080" height="1920"/>
    </clipPath>
  </defs>
  <g id="Mask_Group_174" data-name="Mask Group 174" class="cls-2">
    <g id="Group_4388" data-name="Group 4388" transform="translate(23898.908 -5528.094)">
      <path id="Union_12" data-name="Union 12" class="cls-3" d="M220.673,1094.917a200.917,200.917,0,0,1-32.125-26.783,220.211,220.211,0,0,1-18.82-21.387C64.568,935.509,0,785.485,0,620.649,0,278.359,278.359,0,620.649,0S1241.3,278.359,1241.3,620.649,962.939,1241.3,620.649,1241.3A617.865,617.865,0,0,1,220.673,1094.917Zm349.585,127.3c-32.529-8.339-56.321-24.4-73.728-43.389a180.546,180.546,0,0,1,4.289,31.363,7.83,7.83,0,0,1,.782,2.3A600.273,600.273,0,0,0,570.257,1222.215Zm105.69-.429a598.346,598.346,0,0,0,159.541-37.057,76.6,76.6,0,0,1-37.612-21.921,80.316,80.316,0,0,1-19.546-31.749C762.726,1167.54,732.907,1206.591,675.947,1221.786Zm34.533-89.722a7.818,7.818,0,0,1,0,11.328l-67.894,67.894c116.782-11.909,133.516-115.894,135.866-147.194-42.888,1.619-76.878,15.375-101.962,40.459-30.052,30.052-40.257,70.022-44.272,94.447l66.934-66.934a7.818,7.818,0,0,1,11.328,0Zm-224.946,2.429c23.354,45.193,62.135,70.754,115.692,76.029l-67.137-67.13a8.01,8.01,0,0,1,11.328-11.328l66.529,66.529c-6.1-41.511-32.514-130.18-145.829-134.5C467.736,1077.848,471.778,1106.17,485.534,1134.493Zm-13.058,69.487-54.921-54.927a8.012,8.012,0,1,1,11.334-11.328l55.137,55.137c-5.837-35.876-29.236-106.676-122.3-110.972a152.194,152.194,0,0,0,16.988,58.257c14.647,28.73,36.347,48.048,65.107,57.684q3.713,1.142,7.443,2.236A142.252,142.252,0,0,0,472.476,1203.98Zm-91.422-29.362c-21-25.078-30.129-54.927-34.1-75.768a53.248,53.248,0,0,1-3.852,4.076c-11.328,11.328-27.513,17.8-46.936,17.8a102.093,102.093,0,0,1-14.668-1.092A603.942,603.942,0,0,0,381.054,1174.618Zm428.15-22.334a64.86,64.86,0,0,0,46.127,19.424,66.414,66.414,0,0,0,15.565-1.844q12.295-5.632,24.29-11.791a59.3,59.3,0,0,0,6.265-5.788,64.244,64.244,0,0,0,18.445-38.84H790.823A66.574,66.574,0,0,0,809.2,1152.284Zm-178.833-6.536c.395-.945.8-1.9,1.216-2.846-.407.424-.8.833-1.216,1.257Zm-16.185-.026v-.833q-.309-.334-.652-.709C613.755,1144.7,613.97,1145.207,614.186,1145.722Zm314.684-6.328a608.952,608.952,0,0,0,144.754-120.364c-23.095,12.3-52.276,21.267-88.474,21.581-.117.006-.234.009-.352.009h-78.93a80.011,80.011,0,0,1,6.916,6.47,80.993,80.993,0,0,1,23.631,55.159,7.893,7.893,0,0,1-.059,6.347A83.361,83.361,0,0,1,928.87,1139.394Zm-298.5-124.667v105.729c83.894-100.314,13.9-196.312-8.1-221.447-87.432,93.263-35.783,184.555-8.089,220.717v-105a8.093,8.093,0,1,1,16.185,0Zm-173.775,88.4a226.012,226.012,0,0,1-7.02-39.6q-5.824.559-11.788.564a122.83,122.83,0,0,1-79.1-28.621,98.728,98.728,0,0,1,1.84,29.6C400.018,1066.642,432.468,1079.326,456.6,1103.124ZM255.7,1009.06c-1.439,69.014,45.027,89.488,55.413,93.2,8.319-1.892,15.358-5.64,20.661-11.469,12.137-12.137,16.185-32.364,9.708-56.645-6.47-25.894-21.846-51.787-44.507-74.442-18.9-18.908-41.22-33.385-62.741-41.218C245.726,934.834,256.945,962.761,255.7,1009.06Zm22.973,92.6c-1.712-1.363-3.441-2.827-5.168-4.4-16.185-14.566-34.792-42.079-33.983-89.818,1.531-75.273-30.47-93.678-34.416-95.354q-2.233-.131-4.418-.131c-14.566,0-26.7,4.048-34.8,12.947-22.067,22.073-14.159,69.414,16.71,110.471a610.622,610.622,0,0,0,45.876,43.647C244.977,1090.231,262.374,1098.125,278.677,1101.656Zm640.949-4.391a66.563,66.563,0,0,0-18.176-37.228c-12.137-12.947-28.322-19.417-46.12-19.417-16.995,0-33.989,6.47-46.127,19.417a64.193,64.193,0,0,0-18.255,37.228ZM577.2,1090.255c-10.831-22.217-19.654-49.727-19.654-80.386,0-45.149,19.384-87.977,56.645-126.2v-3.464c-47.878-2.256-75.823-24.519-92.12-49.419l24.154,50.423c0,.81.81,1.619.81,2.429A124.265,124.265,0,0,1,561.6,941.9c0,46.383-27.283,87.626-66.924,108.251C527.6,1055.8,555.309,1069.267,577.2,1090.255Zm93.864-3.418c29.375-26.272,68.582-39.741,116.293-39.741a7.35,7.35,0,0,1,5.667,2.429,7.872,7.872,0,0,1,1.2,1.566q1.753-2.047,3.658-4a85.1,85.1,0,0,1,17.406-13.439,7.779,7.779,0,0,1,2.017-6.787l35.6-35.6a181.4,181.4,0,0,1-31.465-37.814L693.492,1039a11.507,11.507,0,0,1-4.857,1.619,8.415,8.415,0,0,1-3.632-.971A159.677,159.677,0,0,1,671.059,1086.838ZM343.922,887.681a2.974,2.974,0,0,1-.81,2.429c-8.089,16.185-12.947,32.37-12.947,49.365,0,59.067,47.746,107.622,106.819,107.622l.8,8.089V1047.1c59.073,0,106.819-47.746,107.629-106.819,0-17.8-4.857-35.6-13.756-52.6-.81-.81-.81-2.422-.81-3.232L470.543,757.4H413.889ZM833.478,941.9c9.708,16.988,54.216,81.729,149.7,81.729q6.634,0,12.934-.425V860.592q-6.3-.412-12.934-.418C889.313,860.175,843.187,925.718,833.478,941.9Zm68.1,81.729a183.186,183.186,0,0,1-36.4-21.984l-21.984,21.984h.754a79.548,79.548,0,0,1,11.383-.816,85.087,85.087,0,0,1,11.829.816Zm110.718-2.218c73.935-11.575,109.5-65.1,118.153-79.511-8.656-14.422-43.652-68.033-118.153-79.544Zm-325.973-2.874,37.911-75.834-38.911-79.3c-21.588,11.477-43.508,15.214-54.954,16.42v4C641.4,896.082,686,949.945,686.325,1018.541Zm54.1-79.066a11.213,11.213,0,0,1,0,7.28l-30.751,61.5,98.723-65.544-98.723-66.353ZM138.328,983.032c-6.191-27.724-1.516-52.914,15.427-69.458q1.692-1.693,3.528-3.238H94.7a35.092,35.092,0,0,1-3.51-.176A606.7,606.7,0,0,0,138.328,983.032Zm169.986-34.659q3.433,3.433,6.661,6.963a127.321,127.321,0,0,1-.988-15.861,112.376,112.376,0,0,1,4.054-29.663,31.136,31.136,0,0,1-5.679.524H256.84A193.09,193.09,0,0,1,308.314,948.374Zm513.5-17.748a184.576,184.576,0,0,1,31.225-37.149l-35.731-35.731-.006-.007H737.993a8.1,8.1,0,0,1-8.089-8.089V820.338a102.97,102.97,0,0,1-26.705,31.45Zm318.849-3.889a603.276,603.276,0,0,0,35.038-69H1056.955A182.093,182.093,0,0,1,1140.661,926.737Zm-966.666-52a35.811,35.811,0,0,1-5.177,18.607H312.362a16.228,16.228,0,0,0,16.185-16.185V844.048a34.944,34.944,0,0,1-17.8,4.792,34.8,34.8,0,0,1,0-69.591,34.948,34.948,0,0,1,17.8,4.8v-57.4H195.41A34.916,34.916,0,0,1,200.7,745.26a34.8,34.8,0,1,1-69.591,0,34.911,34.911,0,0,1,5.282-18.607H78.51v150.5A16.228,16.228,0,0,0,94.7,893.342h13.456a35.069,35.069,0,0,1-5.367-18.607,35.605,35.605,0,1,1,71.211,0Zm-55.025-.81A19.42,19.42,0,1,0,138.386,854.5,19.686,19.686,0,0,0,118.969,873.925Zm746.812,8.826a184.5,184.5,0,0,1,37.941-22.576H843.2Zm-252.4-19.344c-1.776-18.346-10.048-59.21-45.7-81.729a105.514,105.514,0,0,1-12.679-6.666c-10.812-4.655-23.6-7.789-38.723-8.71C518.7,790.577,533.26,858.549,613.376,863.407Zm17.8-.007c11.219-1.494,31.774-5.411,51.116-17.017a7.887,7.887,0,0,1,.678-.774,6.7,6.7,0,0,1,3.231-1.691c20.966-13.89,39.619-37.448,42.08-77.615C704,768.731,636.031,783.291,631.174,863.4ZM345.542,620.649v230.09l55.045-103.981.783-75.941c-18.614-4.041-33.173-21.036-32.364-40.46a41.019,41.019,0,0,1,9.22-25.894H341.464A33.569,33.569,0,0,1,345.542,620.649Zm-328.547,0A599.59,599.59,0,0,0,61.515,847.991V620.649A32.817,32.817,0,0,1,94.7,587.47h5.654V565.624H69.6a8.106,8.106,0,0,1-8.089-8.089V519.5a8.106,8.106,0,0,1,8.089-8.089h73.63a101.969,101.969,0,0,1-14.65-13.963,8.816,8.816,0,0,1-3.947-4.651c-.02-.059-.05-.146-.09-.263-22.117-28.4-36.328-71.853-36.328-120.306a238.892,238.892,0,0,1,3.767-42.54A599.386,599.386,0,0,0,16.995,620.649ZM746.089,841.554h326.092v-40.46a7.312,7.312,0,0,1,.816-3.558V781.678H746.089Zm424.815-.81V808.381h-81.722v32.364Zm-877.959-26.7a17.8,17.8,0,1,0,17.8-17.8A17.956,17.956,0,0,0,292.945,814.042Zm893.328,17.37a603.768,603.768,0,0,0,1.626-417.379v7.557a7.321,7.321,0,0,1-2.422,5.661l-37.63,37.631a52.288,52.288,0,0,1,22.255,14.163,57.6,57.6,0,0,1,16.988,40.46V701.568a57.06,57.06,0,0,1-41.157,55.143l36.048,36.043a8.206,8.206,0,0,1,5.109,7.538,7.141,7.141,0,0,1-.816,3.215Zm-572.087-20.3v-19.1q-6.784-.321-13.038-1.16A119.767,119.767,0,0,1,614.186,811.111Zm16.185-4.437A101.906,101.906,0,0,1,642,790.753c-4.52.826-8.471,1.351-11.628,1.684ZM507.3,799.954a152.747,152.747,0,0,1-8.018-41.747,7.346,7.346,0,0,1,2.429-5.661,8.731,8.731,0,0,1,5.661-2.429,159.612,159.612,0,0,1,21.127,1.352c-28.309-35.347-29.217-80.965-29.217-81.461a7.35,7.35,0,0,1,2.429-5.667,8.73,8.73,0,0,1,5.661-2.429,161.251,161.251,0,0,1,20.416,1.254,120.066,120.066,0,0,1-12.053-18.841,42.153,42.153,0,0,1-31.011,27.3l-.81,78.5c0,.32-.014.626-.043.919Zm652.281-7.758-29.132-29.132L1101.313,792.2Zm-70.394-11.334,24.1-24.1a52.447,52.447,0,0,1-24.1-14.73v38.834Zm-458.008-4.851c24.274-3.238,92.247-17.8,97.1-97.1C704,681.335,636.031,695.9,631.174,776.011Zm-68.468-15.043a104.856,104.856,0,0,1,11.523,6.078c10.9,4.8,23.824,8.037,39.147,8.964-1.75-18.065-9.793-58.375-44.083-81.03a104.746,104.746,0,0,1-15.7-8.246,113.527,113.527,0,0,0-37.319-7.828C518.061,696.783,526.424,738.352,562.706,760.968ZM1073,765.493V710.978q-.458-2.654-.66-5.362H746.089v59.876ZM148.1,745.26a17.8,17.8,0,1,0,35.6,0c.81-9.708-7.286-17.8-17.8-17.8A17.955,17.955,0,0,0,148.1,745.26Zm568.673,6.346c5.283-.977,9.781-1.541,13.13-1.865V732.947A101.934,101.934,0,0,1,716.774,751.606ZM1101.319,730.7c7.28,8.089,17.8,12.137,29.132,12.137a40.58,40.58,0,0,0,40.46-40.46V520.313a41.046,41.046,0,0,0-12.144-29.132,39.7,39.7,0,0,0-29.125-12.137,40.572,40.572,0,0,0-40.459,40.46V695.14a8.2,8.2,0,0,1,0,5.973v.455A41.05,41.05,0,0,0,1101.319,730.7ZM385.185,628.739c0,13.756,10.525,25.091,24.281,25.091a7.362,7.362,0,0,1,5.661,2.422,8.745,8.745,0,0,1,2.429,5.667l-.81,78.49H466.1l.81-77.681a7.35,7.35,0,0,1,2.429-5.667,8.735,8.735,0,0,1,5.667-2.422c13.756,0,25.084-11.334,25.084-24.281,0-13.756-10.518-25.084-24.274-25.084s-25.091,11.328-25.091,24.274a8.089,8.089,0,1,1-16.179,0c0-13.756-10.525-25.084-24.281-25.084S385.185,615.792,385.185,628.739Zm229,94.168V704.613q-6.392-.3-12.32-1.067A120.348,120.348,0,0,1,614.186,722.906Zm16.185-3.625a102.018,102.018,0,0,1,12.509-16.9c-4.889.923-9.15,1.494-12.509,1.848ZM78.51,620.649v89.818H328.547V620.649a16.228,16.228,0,0,0-16.185-16.185H94.7A16.228,16.228,0,0,0,78.51,620.649Zm987.231,68.782-34.851-50.8a59.686,59.686,0,0,1-26.675,6.3,61.032,61.032,0,0,1-51.783-29.3L897.851,638.67a43.791,43.791,0,0,1-19.224,8.116l-101,42.645Zm-434.567-.816c24.274-3.232,92.247-17.8,97.1-97.1C704,593.94,636.031,608.506,631.174,688.615Zm-68.508-15.872a105.67,105.67,0,0,1,11.6,6.118c10.89,4.792,23.8,8.024,39.108,8.951-1.85-18.5-10.747-62.356-50.3-84.341a7.858,7.858,0,0,1-3.738-1.965c-11.686-5.8-25.864-9.756-43.065-10.8C518.061,608.577,526.424,650.127,562.666,672.743Zm179.368-8.4a8.745,8.745,0,0,1,2.429,5.667q0,8.629-.8,16.464l92.65-39.12H771.983a43.527,43.527,0,0,1-35.25-17.749A103.562,103.562,0,0,1,715.9,664.373a132.474,132.474,0,0,1,20.468-2.461A7.35,7.35,0,0,1,742.035,664.341Zm330.153,5.531V519.5a57.742,57.742,0,0,1,40.583-54.9l-36.5-36.508a8.228,8.228,0,0,1-2.274-2.647,72.287,72.287,0,0,1-60.07,61.606v37.29c28.662,4.734,50.978,30.02,50.978,59.9a60.655,60.655,0,0,1-20.457,45.2Zm-458-34.353V427.251a8.407,8.407,0,0,1,.084-1.189,130.287,130.287,0,0,1-37.3,5.236h-4.055V590.663C592.705,602.341,605.677,618.923,614.186,635.518Zm16.185-208.268v203.83c10.844-18.334,25.9-30.814,41.269-39.305V431.3H667.6a127.136,127.136,0,0,1-37.341-5.234A6.412,6.412,0,0,1,630.371,427.251Zm114.908,176.4a26.939,26.939,0,0,0,26.7,26.7h99.533a26.085,26.085,0,0,0,8.117-1.3l4.071-1.719a26.935,26.935,0,0,0,14.515-23.689V578.021c-6.391-2.117-10.283-6.259-13.763-9.159-4.041-4.048-6.47-5.667-11.328-5.667s-7.28,1.619-11.328,5.667c-4.857,4.858-10.518,10.518-22.655,10.518s-17.8-6.47-22.662-10.518c-4.041-4.048-6.47-5.667-11.328-5.667s-7.28,1.619-11.328,5.667c-4.858,4.858-10.518,10.518-22.655,10.518s-17.8-6.47-22.655-10.518a36.61,36.61,0,0,0-3.238-2.949Zm215.238-20.227a43.695,43.695,0,1,0,53.406-42.634v7.025c0,4.048-4.048,8.1-8.1,8.1a8.111,8.111,0,0,1-8.089-8.1V540.2A43.489,43.489,0,0,0,960.517,583.428Zm-45.311,21.036a42.006,42.006,0,0,1-1.227,10.1l31.967-13.5a59.47,59.47,0,0,1-2.424-16.825c0-30.993,24.007-57.043,54.216-60.34V487.779a71.941,71.941,0,0,1-54.513-112.507q-2.652.19-5.357.191a71.451,71.451,0,0,1-29.221-6.217l5.749,11.074c.81.81.81,2.429.81,4.048v220.1Zm-471.758,1.619A41.41,41.41,0,0,1,476.622,589.9a40.958,40.958,0,0,1,24.2,7.916A127.138,127.138,0,0,1,499.287,583c-.006-.117-.009-.234-.009-.352,0-.008,0-.015,0-.021s0-.005,0-.008v-218.4c-7.9-17.95-16.526-38.011-22.649-52.325v101.6c-.81,4.048-4.048,8.1-8.905,8.1H409.459V589.1c.27-.005.539-.008.81-.008A39.915,39.915,0,0,1,443.449,606.083ZM312.362,587.47a33.379,33.379,0,0,1,18.607,5.543V565.624H306.695V587.47Zm34.792,0h46.127V421.59H347.154Zm-56.645,0V565.624H116.534V587.47ZM687.825,584.2a160.961,160.961,0,0,1,40.46-9.893V401.255a59.2,59.2,0,0,1-40.46,28.868Zm-131.094-1.314V430.12a59.1,59.1,0,0,1-41.269-30.39V574.711A132.488,132.488,0,0,1,556.732,582.888Zm271.086-25.354c4.041,4.048,6.47,5.661,11.328,5.661s7.28-1.613,11.328-5.661c4.858-4.857,10.518-10.518,22.655-10.518s17.8,6.47,22.655,10.518c.874.874,1.672,1.634,2.435,2.289V502.769c-6.391-2.119-10.283-6.265-13.763-9.165-4.048-4.041-6.47-5.661-11.328-5.661s-7.286,1.619-11.328,5.661c-4.857,4.858-10.525,10.525-22.662,10.525s-17.8-6.477-22.655-10.525c-4.048-4.041-6.477-5.661-11.328-5.661s-7.286,1.619-11.328,5.661c-4.858,4.858-10.518,10.525-22.662,10.525s-17.8-6.477-22.655-10.525a36.79,36.79,0,0,0-3.232-2.941v57.462c6.87,2.025,10.944,6.391,14.566,9.409,4.041,4.048,6.47,5.661,11.328,5.661s7.28-1.613,11.328-5.661c4.857-4.857,10.518-10.518,22.655-10.518S822.96,553.487,827.818,557.535Zm-498.461-8.1V527.593H77.694v21.846H329.356Zm1.613-38.031V421.59H277.38c-8.364,39.584-26.509,71.884-49.79,89.818Zm-145.646-1.619c40.617,0,74.492-51.214,80.1-117.982V352.822c-3.1-36.66-14.859-68.92-31.621-90.428,5.318,28.256,2.88,72.579-42.815,116.308-63.969,60.885-52.328,104.156-50.377,108.133C153.442,501.339,168.828,509.789,185.323,509.789Zm642.488-27.513c4.048,4.048,6.477,5.667,11.328,5.667s7.286-1.619,11.328-5.667c4.858-4.851,10.525-10.518,22.662-10.518s17.8,6.47,22.655,10.518c.874.874,1.672,1.634,2.435,2.289V428.319c-6.391-2.118-10.283-6.263-13.763-9.158-4.041-4.048-6.47-5.667-11.328-5.667s-7.28,1.619-11.328,5.667c-4.857,4.857-10.518,10.518-22.655,10.518s-17.8-6.477-22.662-10.518c-4.041-4.048-6.47-5.667-11.328-5.667s-7.28,1.619-11.328,5.667c-4.858,4.857-10.518,10.518-22.655,10.518s-17.8-6.477-22.655-10.518a36.6,36.6,0,0,0-3.238-2.949v56.655c6.87,2.025,10.942,6.391,14.559,9.409,4.048,4.048,6.477,5.667,11.328,5.667s7.286-1.619,11.334-5.667c4.851-4.851,10.518-10.518,22.655-10.518S822.96,478.228,827.811,482.276Zm118.963-66.347a55.835,55.835,0,1,0,55.835-55.835A55.949,55.949,0,0,0,946.774,415.929Zm-842.37-43.7c0,33.164,6.923,63.562,18.419,87.3,3.44-22.591,16.505-55.153,56.03-92.958,63.291-60.952,33.779-119.634,30.218-125.781a50.482,50.482,0,0,0-23.748-6.115C140.815,234.668,104.4,296.164,104.4,372.225Zm1025.238,86.586,29.132-29.132H1100.51ZM625.52,407.024c16.185,7.286,33.18,8.1,42.079,8.1h8.089c16.995,0,32.37-9.715,39.65-23.471,12.144-25.084,46.127-104.384,46.127-105.193v-.81a84.381,84.381,0,0,0,8.1-34.792,81.5,81.5,0,0,0-81.729-81.729,83.259,83.259,0,0,0-58.985,24.964,8.254,8.254,0,0,1-6.565,3.358l-.19,0a8.588,8.588,0,0,1-6.28-2.426,83.271,83.271,0,0,0-59.883-25.894,81.489,81.489,0,0,0-79.3,61.773v40.067a64.705,64.705,0,0,0,5.667,14.681v.81c0,.57,16.837,39.626,31.04,71.737a8.087,8.087,0,0,1,2.115,4.775c5.147,11.6,9.8,21.929,12.964,28.682,7.286,14.566,22.662,23.471,39.65,23.471h8.1c8.9,0,25.894-.81,42.079-8.1a7.288,7.288,0,0,1,4.041-.81C623.091,406.215,624.71,406.215,625.52,407.024Zm463.662,6.47h81.729V380.321h-81.729Zm-261.365-5.661c4.041,4.041,6.47,5.661,11.328,5.661s7.28-1.619,11.328-5.661c4.858-4.858,10.518-10.525,22.655-10.525s17.8,6.477,22.655,10.525c.874.872,1.672,1.631,2.435,2.286V385.988L857.759,308.3H783.31c-3.238,10.525-14.566,32.37-38.031,78.5v11.621c6.87,2.027,10.944,6.4,14.566,9.415,4.041,4.041,6.47,5.661,11.328,5.661s7.28-1.619,11.328-5.661c4.857-4.858,10.518-10.525,22.655-10.525S822.96,403.786,827.818,407.834Zm245.989-2.733v-30a72.267,72.267,0,0,1-7.273.366q-2.272,0-4.511-.141A71.622,71.622,0,0,1,1073.807,405.1Zm-792.2-.506H459.634V263.384a98.06,98.06,0,0,1-.8-12.531,99.586,99.586,0,0,1,.8-12.644V219.292h-72.02v22.655a38.957,38.957,0,0,1-16.485,31.772,33.189,33.189,0,1,1-43.8.63,38.961,38.961,0,0,1-17.4-32.4V178.833H281.611v173.4q.807,9.824.816,19.995,0,10.256-.816,20.16Zm885.854-39.65a603.446,603.446,0,0,0-29.231-54.764,72.2,72.2,0,0,1-34.308,54.764Zm-100.931-6.47A55.835,55.835,0,1,0,1010.7,302.64,55.954,55.954,0,0,0,1066.533,358.475Zm-184.5-55.835a55.835,55.835,0,1,0,55.835-55.835A55.949,55.949,0,0,0,882.034,302.64Zm115.44,41.451q2.544-.181,5.135-.182,2.269,0,4.5.14a72.167,72.167,0,0,1-4.84-8.15A71.731,71.731,0,0,1,997.474,344.091Zm-664.885-45.5A16.995,16.995,0,1,0,349.583,281.6,16.593,16.593,0,0,0,332.588,298.592Zm530.831-7.28a7.775,7.775,0,0,1,3.34.7,72.348,72.348,0,0,1,55.367-58.843c-26.927-18.688-40.98-45.813-48.307-68.759a84.841,84.841,0,0,1-14.454,19.279c-14.129,12.783-31.609,21.648-50.121,24.274h54.182a8.106,8.106,0,0,1,8.089,8.089v42.079a8.106,8.106,0,0,1-8.089,8.089h-12.15v25.091Zm-86.673.151a9.518,9.518,0,0,1,1.706-.151h12.131V266.222h-6.056A92.385,92.385,0,0,1,776.747,291.464Zm59.154-.151V266.222H807.578v25.091Zm-570.475-6.161V170.737a103.957,103.957,0,0,1,10.175-45A609.721,609.721,0,0,0,170.038,219.6a61.835,61.835,0,0,1,15.285-1.927C218.473,217.673,247.885,244.492,265.426,285.151Zm53.406-122.5a8.106,8.106,0,0,1,8.089,8.089v71.211a11.241,11.241,0,0,1-.7,2.239,22.659,22.659,0,0,0,45.206-2.239V211.2a8.11,8.11,0,0,1,8.089-8.089h80.116v-33.18c0-49.358-38.84-89.008-88.205-89.008a90.213,90.213,0,0,0-32.239,5.92q-11.426,6.055-22.568,12.586a88.61,88.61,0,0,0-34.716,63.223Zm675.681,96.427v-3.537c-1.039-.043-2.081-.1-3.1-.155Q993.023,257.177,994.513,259.075Zm16.185-1.017a71.886,71.886,0,0,1,72.811-24.6,608.532,608.532,0,0,0-72.811-73.274Zm-223.34-8.824H855.33V223.34H787.358Zm194.306-11.621-48.653-49.881c-3.238-3.232-3.238-8.9,0-11.328,3.238-3.232,8.9-3.232,11.328,0l47.093,48.281c-6.79-33.15-29.081-91.177-107.216-95.942q-.222,3.1-.653,6.155C887.654,164.356,905.92,227.649,981.664,237.612ZM776.1,208.328a7.952,7.952,0,0,1,2.357-.364h7.261a88.332,88.332,0,0,1-10.88-2.164Q775.489,207.055,776.1,208.328ZM476.629,170.737v23.694a97.638,97.638,0,0,1,67.354-40.674c-34.251-18.547-67.361-53.428-68.916-118.977a598.238,598.238,0,0,0-92.635,31.3C436.132,71.406,476.629,115.391,476.629,170.737Zm271.066.81c12.947,13.756,30.751,20.233,50.175,20.233s36.412-7.28,50.168-20.233c10.46-9.844,16.711-22.494,19.106-36.53-.282-2.028-.5-3.886-.677-5.542H727.9C729.642,145.545,736.58,159.736,747.7,171.547ZM994.513,183.1V146.924A604.389,604.389,0,0,0,867.079,69.546a86.048,86.048,0,0,1,16.882,43.19C946.788,116.009,978.515,150,994.513,183.1Zm-364.142-11.65A98.644,98.644,0,0,1,718.69,157.87a87.988,87.988,0,0,1-7.365-32.918,8.1,8.1,0,0,1-.851-3.574q0-.181.011-.362c-16.788,17.942-42.058,31.993-80.114,33.422ZM555.928,140.8a163.684,163.684,0,0,0,42.911,14.4l-48.578-51.61c-3.238-3.238-3.238-8.905,0-11.334,3.238-3.232,8.9-3.232,11.328,0l50.019,53.142c-5.022-42.53-25.8-73.4-62.959-91.982C525.987,42.888,503.332,39.65,492,38.031,494.426,85.777,515.469,120.569,555.928,140.8ZM685.409,84.157a7.818,7.818,0,0,1,0,11.328L645.276,136.2c66.719-10.616,79.111-69.539,81.4-91.692-64.714,4.087-85.274,50.612-91.607,79.222l39.01-39.572a7.818,7.818,0,0,1,11.328,0Zm182.429,29.132c-1.741-16.069-8.685-30.268-19.8-42.079-12.947-13.756-31.561-20.233-50.168-20.233A73.165,73.165,0,0,0,747.7,71.211c-11.821,11.125-18.262,25.839-19.84,42.079ZM614.186,97.27V17.029A602.952,602.952,0,0,0,515.7,26.147C546.525,33.027,591.342,50.888,614.186,97.27Zm16.185-7.551c14.842-30.291,44.793-61.4,105.207-61.4a7.35,7.35,0,0,1,5.667,2.429,8.733,8.733,0,0,1,2.422,5.661,125.639,125.639,0,0,1-2.244,19.617,85.282,85.282,0,0,1,36.663-18.243A602.548,602.548,0,0,0,630.371,17.072ZM437.788,1064.085Zm-8.1-64.734c0-4.048,4.048-8.1,8.1-8.1a61.47,61.47,0,0,0,61.5-61.5,8.107,8.107,0,0,1,8.1-8.089c4.041,0,8.089,4.041,8.089,8.089.81,42.888-34.8,77.681-77.681,77.681A8.111,8.111,0,0,1,429.692,999.351ZM1032.544,941.9a30.748,30.748,0,1,1,30.751,30.751A30.735,30.735,0,0,1,1032.544,941.9Zm16.185,0a14.566,14.566,0,0,0,29.132,0c0-8.089-7.286-14.559-14.566-14.559A14.5,14.5,0,0,0,1048.729,941.9ZM994.513,443.436c0-4.041,4.048-8.089,8.089-8.089a19.689,19.689,0,0,0,19.423-19.423,8.11,8.11,0,0,1,8.089-8.089c4.048,0,8.1,4.048,8.1,8.089a35.924,35.924,0,0,1-35.608,35.609A8.111,8.111,0,0,1,994.513,443.436Zm63.931-112.48c0-4.041,4.048-8.089,8.089-8.089a19.689,19.689,0,0,0,19.423-19.423,8.11,8.11,0,0,1,8.089-8.089c4.048,0,8.1,4.048,8.1,8.089a35.924,35.924,0,0,1-35.609,35.609A8.111,8.111,0,0,1,1058.444,330.956Zm-128.665,0c0-4.041,4.048-8.089,8.089-8.089a19.689,19.689,0,0,0,19.423-19.423,8.11,8.11,0,0,1,8.089-8.089c4.048,0,8.1,4.048,8.1,8.089a35.924,35.924,0,0,1-35.609,35.609A8.111,8.111,0,0,1,929.779,330.956Z" transform="translate(-23979.584 6827.585)"/>
    </g>
  </g>
</svg>
