<svg xmlns="http://www.w3.org/2000/svg" width="80" height="80" viewBox="0 0 40 40">
  <defs>
    <style>
      .cls-1 {
        fill: #eb2f34;
        fill-rule: evenodd;
      }
    </style>
  </defs>
  <path class="cls-1" d="M10744.9,6078.97a19.823,19.823,0,0,1-10.8-3.9,16.192,16.192,0,0,1-2.3-1.94,20.335,20.335,0,0,1-3.8-5.44,19.723,19.723,0,0,1,0-17.41,20.285,20.285,0,0,1,3.8-5.43,20.146,20.146,0,0,1,22.9-3.88,18.135,18.135,0,0,1,5.4,3.88,18.6,18.6,0,0,1,3.9,5.43,19.723,19.723,0,0,1,0,17.41,20.525,20.525,0,0,1-8.1,8.67,19.935,19.935,0,0,1-11,2.61h0Zm3-5.07a14.605,14.605,0,0,0,3-.72,14.894,14.894,0,0,0,9.8-11.39,13.217,13.217,0,0,0,0-5.6,14.854,14.854,0,0,0-11.9-11.96,16.453,16.453,0,0,0-5.6,0,15.094,15.094,0,0,0-12,11.96,19.7,19.7,0,0,0,0,5.6,15.106,15.106,0,0,0,13,12.12,11.291,11.291,0,0,0,2,.08,14.445,14.445,0,0,0,1.7-.09h0Zm-2.3-4.41a2.561,2.561,0,0,1-2-2.07v-0.74a2.515,2.515,0,0,1,2.1-2.09,1.652,1.652,0,0,1,.7,0,2.515,2.515,0,0,1,2.1,2.09,0.95,0.95,0,0,1,0,.74,2.549,2.549,0,0,1-2,2.07,1.955,1.955,0,0,1-.9,0h0Zm-2-13.71v-6.26h5v12.52h-5v-6.26Z" transform="translate(-10726 -6039)"/>
</svg>
