<svg xmlns="http://www.w3.org/2000/svg" viewBox="-22386 2657 70 70">
  <defs>
    <style>
      .cls-1 {
        fill: #fff;
      }

      .cls-2, .cls-7 {
        fill: none;
      }

      .cls-3 {
        fill: #4285f4;
      }

      .cls-3, .cls-4, .cls-5, .cls-6, .cls-7 {
        fill-rule: evenodd;
      }

      .cls-4 {
        fill: #34a853;
      }

      .cls-5 {
        fill: #fbbc05;
      }

      .cls-6 {
        fill: #ea4335;
      }
    </style>
  </defs>
  <g id="Icon_Google" transform="translate(-22386 2657)">
    <g id="button">
      <g id="button-bg">
        <rect id="Rectangle_2741" data-name="Rectangle 2741" class="cls-1" width="70" height="70" rx="2"/>
        <rect id="Rectangle_2742" data-name="Rectangle 2742" class="cls-2" width="70" height="70" rx="2"/>
        <rect id="Rectangle_2743" data-name="Rectangle 2743" class="cls-2" width="70" height="70" rx="2"/>
        <rect id="Rectangle_2744" data-name="Rectangle 2744" class="cls-2" width="70" height="70" rx="2"/>
      </g>
    </g>
    <g id="logo_googleg_48dp" transform="translate(19.25 19.25)">
      <path id="Shape" class="cls-3" d="M24.12,10.585a18.1,18.1,0,0,0-.286-3.222H9v6.092h8.476a7.245,7.245,0,0,1-3.143,4.754v3.952h5.09a15.361,15.361,0,0,0,4.7-11.576Z" transform="translate(6.75 5.523)"/>
      <path id="Shape-2" data-name="Shape" class="cls-4" d="M15.032,23.468a15.037,15.037,0,0,0,10.424-3.816L20.366,15.7a9.467,9.467,0,0,1-5.334,1.5A9.386,9.386,0,0,1,6.219,10.71H.957v4.081a15.744,15.744,0,0,0,14.075,8.677Z" transform="translate(0.718 8.033)"/>
      <path id="Shape-3" data-name="Shape" class="cls-5" d="M6.937,15.024a9.311,9.311,0,0,1,0-5.985V4.958H1.675a15.77,15.77,0,0,0,0,14.146l5.262-4.081Z" transform="translate(0 3.719)"/>
      <path id="Shape-4" data-name="Shape" class="cls-6" d="M15.032,6.264A8.508,8.508,0,0,1,21.053,8.62L25.57,4.1A15.137,15.137,0,0,0,15.032,0,15.744,15.744,0,0,0,.957,8.677l5.262,4.081a9.386,9.386,0,0,1,8.813-6.493Z" transform="translate(0.718)"/>
      <path id="Shape-5" data-name="Shape" class="cls-7" d="M0,0H31.5V31.5H0Z"/>
    </g>
  </g>
</svg>
