<svg xmlns="http://www.w3.org/2000/svg" viewBox="4174.539 1188.781 58 58">
  <defs>
    <style>
      .cls-1 {
        fill: #e13340;
      }

      .cls-2, .cls-4 {
        fill: none;
      }

      .cls-2 {
        stroke: #e13340;
        stroke-width: 1.5px;
      }

      .cls-3 {
        stroke: none;
      }
    </style>
  </defs>
  <g id="Group_3042" data-name="Group 3042" transform="translate(4139 956)">
    <path id="Path_3453" data-name="Path 3453" class="cls-1" d="M46.156,31.91a7.278,7.278,0,0,0-6.12-3.41h-.525a21.579,21.579,0,0,0-2.972-6.032c-.175-.262-.437.175-.612-.7h0a4.279,4.279,0,0,0,2.186.612V16.96a4.21,4.21,0,0,0-2.8,1.137l-.262-1.661-3.759.787.175.437a11.8,11.8,0,0,1-6.12-4.808,7.547,7.547,0,0,0,.262-2.273,6.092,6.092,0,0,0,2.8-.087c.874-.35.087-1.836.962-2.1,1.4-.35-.087-2.36-.262-2.535s.087-.612.087-1.224l1.049-.262A5.2,5.2,0,0,0,19.928,4.9a4.791,4.791,0,0,0,2.535,4.2c-1.224.35-2.448.962-4.983,4.459a17.622,17.622,0,0,0-1.4,2.186A3.748,3.748,0,0,0,13.2,13.726l-8.305-.874A3.721,3.721,0,0,0,.783,16.173L0,23.517a3.721,3.721,0,0,0,3.322,4.109l6.819.525a7.942,7.942,0,0,0-.7,6.907h.874v.525a5.77,5.77,0,0,0,5.683,5.6,5.546,5.546,0,0,0,5.683-5.333h0c4.371.175,10.753.35,12.676.35a1.488,1.488,0,0,0,.612-.087A5.365,5.365,0,0,0,40.3,41.177a5.3,5.3,0,0,0,5.333-5.333,5.446,5.446,0,0,0-1.137-3.322,17.208,17.208,0,0,1,1.661-.612ZM25.611,29.375c.525-.087.787-.175.962-.437l.7,3.672h.35a7.7,7.7,0,0,0-.175,1.486C25.261,33.134,25.436,30.336,25.611,29.375ZM33.3,31.648c-.437-.7-.962-.35-1.486,0a1.833,1.833,0,0,1-1.574.525V32c0-1.049.087-4.2-.087-7.518-.087-2.1-2.8-3.06-6.12-3.5a10.26,10.26,0,0,0,.262-2.535V18.1c1.574,1.311,4.022,2.273,8.043,2.448a12.3,12.3,0,0,1,2.36,6.994C34.7,30.249,33.829,31.3,33.3,31.648Z" transform="translate(40.035 239.027)"/>
    <g id="Ellipse_193" data-name="Ellipse 193" class="cls-2" transform="translate(35.539 232.781)">
      <circle class="cls-3" cx="29" cy="29" r="29"/>
      <circle class="cls-4" cx="29" cy="29" r="28.25"/>
    </g>
  </g>
</svg>
