<?xml version="1.0" standalone="no"?>
<!DOCTYPE svg PUBLIC "-//W3C//DTD SVG 20010904//EN"
 "http://www.w3.org/TR/2001/REC-SVG-20010904/DTD/svg10.dtd">
<svg version="1.0" xmlns="http://www.w3.org/2000/svg"
 width="300.000000pt" height="282.000000pt" viewBox="0 0 300.000000 282.000000"
 preserveAspectRatio="xMidYMid meet">
<metadata>
Created by potrace 1.15, written by Peter Selinger 2001-2017
</metadata>
<g transform="translate(0.000000,282.000000) scale(0.100000,-0.100000)"
fill="#e13c3f" stroke="none">
<path d="M1437 2794 c-521 -81 -944 -303 -1179 -618 -160 -215 -245 -516 -219
-772 11 -105 25 -142 59 -151 48 -12 56 5 64 127 21 333 126 594 322 799 133
139 293 240 475 301 133 45 143 33 15 -18 -379 -149 -652 -457 -731 -823 -26
-121 -26 -556 0 -674 60 -277 294 -551 591 -695 103 -50 256 -100 306 -100 37
0 80 -17 80 -31 0 -16 -109 -4 -235 26 -268 63 -453 192 -657 457 -102 132
-148 152 -148 64 0 -103 88 -254 221 -381 141 -135 300 -220 509 -273 98 -25
120 -27 325 -27 240 0 298 8 490 66 424 129 770 455 913 859 56 159 67 235 66
455 0 426 -81 664 -295 871 -184 177 -356 271 -568 309 -101 19 -143 33 -134
47 11 18 154 1 253 -31 313 -100 600 -327 709 -562 39 -83 77 -215 103 -359
28 -153 30 -423 4 -555 -77 -399 -258 -662 -628 -912 -70 -47 -129 -92 -133
-100 -33 -87 229 21 420 173 318 252 468 480 529 803 25 130 38 380 27 506
-24 271 -106 506 -253 726 -177 265 -460 437 -813 494 -112 19 -368 18 -488
-1z m294 -571 c5 -10 25 -54 42 -97 l32 -80 115 -26 c155 -35 251 -65 336
-105 81 -37 100 -64 66 -97 -16 -16 -41 -22 -138 -29 -453 -35 -712 -75 -1312
-205 -140 -31 -266 -54 -280 -52 -49 5 -41 41 20 89 84 67 223 156 329 210
l98 50 58 106 58 107 260 72 c143 40 270 73 282 73 13 1 28 -7 34 -16z m558
-636 c8 -10 7 -29 -1 -71 -12 -53 -11 -59 7 -72 10 -8 29 -14 42 -14 30 0 30
-25 -1 -45 -28 -19 -84 -22 -112 -7 -16 9 -28 5 -63 -19 -147 -98 -247 25
-121 151 61 61 91 73 226 89 6 0 17 -5 23 -12z m-376 -16 c32 -13 43 -46 24
-74 -8 -12 -41 -51 -73 -87 l-58 -65 40 -7 c21 -4 60 -7 86 -7 53 -1 65 -11
40 -34 -31 -28 -65 -35 -197 -38 l-130 -4 -3 29 c-3 26 8 40 83 113 l86 83
-64 0 c-69 0 -102 20 -95 57 3 15 17 19 83 25 44 4 89 9 100 11 37 8 54 7 78
-2z m-315 -77 c12 -4 25 -17 28 -30 8 -30 -21 -76 -101 -163 l-57 -61 44 0
c25 0 88 -6 140 -14 54 -8 121 -12 153 -9 65 7 70 -5 21 -41 -25 -19 -46 -22
-229 -27 -111 -3 -216 -11 -234 -17 -24 -8 -36 -7 -52 5 -42 29 -28 59 81 169
l102 104 -58 0 c-65 0 -96 12 -96 39 0 31 23 40 110 44 47 1 94 4 105 5 11 1
30 -1 43 -4z m-593 -23 c46 -21 79 -54 94 -94 17 -44 13 -114 -9 -156 -42 -82
-162 -157 -241 -149 -51 5 -45 25 18 57 101 51 146 115 123 176 -12 31 -66 65
-102 65 -25 0 -28 -4 -28 -32 0 -66 -125 -463 -164 -522 -25 -38 -53 -34 -65
10 -21 77 32 309 107 465 28 58 28 59 7 59 -48 0 -60 52 -21 89 53 50 205 67
281 32z m283 -81 c3 -44 -4 -76 -33 -155 -21 -55 -39 -106 -41 -112 -7 -24
-43 -14 -59 17 -27 52 -19 99 35 209 43 89 53 102 73 99 19 -3 22 -10 25 -58z
m705 -232 c-1 -27 2 -48 5 -48 4 0 34 7 67 15 118 28 140 13 48 -33 -32 -16
-81 -37 -109 -46 l-52 -17 -32 -117 c-46 -170 -45 -167 -65 -167 -28 0 -38 62
-25 157 6 44 13 85 16 93 4 8 -5 15 -25 20 -66 14 -67 65 -1 65 45 0 61 13
103 84 21 37 32 47 50 44 19 -3 22 -8 20 -50z m-598 -119 c0 -24 -4 -66 -9
-93 -7 -46 -7 -48 13 -43 32 8 27 -25 -8 -50 -19 -15 -30 -34 -34 -60 -14 -82
-38 -143 -64 -160 -25 -16 -26 -16 -45 7 -17 21 -19 34 -14 81 l7 56 -58 -19
c-32 -11 -60 -21 -62 -23 -2 -2 -12 -41 -23 -87 -24 -103 -39 -128 -78 -128
-51 0 -60 48 -34 178 6 27 3 32 -19 37 -14 4 -33 15 -42 25 -28 30 -5 57 56
65 49 7 51 9 70 54 38 86 64 134 91 163 51 55 62 8 28 -121 l-19 -74 50 6 c27
3 54 9 58 12 5 3 21 41 36 85 27 81 68 144 89 137 6 -2 11 -24 11 -48z m357
-140 c4 -156 -3 -170 -57 -116 -19 19 -35 42 -35 50 0 8 -21 -7 -48 -34 -52
-52 -91 -67 -127 -51 -33 15 -40 53 -25 129 11 57 11 66 -5 83 -23 25 -11 40
30 40 50 0 78 -40 72 -102 -2 -27 -2 -48 0 -48 15 0 106 100 123 136 17 34 27
44 45 44 24 0 24 -1 27 -131z"/>
<path d="M42 1144 c-38 -17 -55 -141 -31 -228 21 -76 105 -124 157 -90 21 14
23 21 17 52 -4 21 -10 77 -14 125 -6 74 -11 92 -32 112 -24 25 -73 39 -97 29z"/>
</g>
</svg>
