<svg id="Group_4429" data-name="Group 4429" xmlns="http://www.w3.org/2000/svg" xmlns:xlink="http://www.w3.org/1999/xlink" viewBox="0 0 272.037 70.543">
  <defs>
    <style>
      .cls-1, .cls-2 {
        fill: #fff;
      }

      .cls-1 {
        stroke: #fff;
        stroke-miterlimit: 10;
        stroke-width: 0.2px;
      }

      .cls-3 {
        fill: #5bc9f4;
      }

      .cls-4 {
        fill: url(#linear-gradient);
      }

      .cls-5 {
        fill: url(#linear-gradient-2);
      }

      .cls-6 {
        fill: url(#linear-gradient-3);
      }
    </style>
    <linearGradient id="linear-gradient" x1="0.807" y1="0.494" x2="-1.575" y2="0.494" gradientUnits="objectBoundingBox">
      <stop offset="0" stop-color="#fee000"/>
      <stop offset="0.194" stop-color="#fccf0b"/>
      <stop offset="0.547" stop-color="#fab318"/>
      <stop offset="0.828" stop-color="#f9a21b"/>
      <stop offset="1" stop-color="#f99b1c"/>
    </linearGradient>
    <linearGradient id="linear-gradient-2" x1="0.863" y1="0.178" x2="-0.499" y2="1.942" gradientUnits="objectBoundingBox">
      <stop offset="0" stop-color="#ef4547"/>
      <stop offset="1" stop-color="#c6186d"/>
    </linearGradient>
    <linearGradient id="linear-gradient-3" x1="-0.505" y1="-0.959" x2="0.607" y2="0.488" gradientUnits="objectBoundingBox">
      <stop offset="0" stop-color="#279e6f"/>
      <stop offset="0.317" stop-color="#4dab6d"/>
      <stop offset="0.74" stop-color="#6aba6a"/>
      <stop offset="1" stop-color="#74c169"/>
    </linearGradient>
  </defs>
  <path id="Path_2502" data-name="Path 2502" d="M261.961,70.543H10.075C4.433,70.543,0,66.663,0,61.725V8.818C0,3.88,4.433,0,10.075,0H261.961c5.642,0,10.075,3.88,10.075,8.818V61.725C272.037,66.663,267.6,70.543,261.961,70.543Z" transform="translate(0)"/>
  <g id="Group_4105" data-name="Group 4105" transform="translate(36.001 11.375)">
    <g id="Group_1423" data-name="Group 1423" transform="translate(54.166)">
      <path id="Path_2490" data-name="Path 2490" class="cls-1" d="M51.75,12.72a4.869,4.869,0,0,1-1.208,3.527,5.331,5.331,0,0,1-7.59,0,5.244,5.244,0,0,1-1.553-3.88,5.244,5.244,0,0,1,1.553-3.88,5.017,5.017,0,0,1,3.8-1.587,4.513,4.513,0,0,1,2.07.529A3.771,3.771,0,0,1,50.37,8.664l-.863.882a3.187,3.187,0,0,0-2.76-1.235,3.4,3.4,0,0,0-2.76,1.235,3.672,3.672,0,0,0-1.208,3,3.672,3.672,0,0,0,1.208,3,4.4,4.4,0,0,0,2.76,1.235,3.742,3.742,0,0,0,2.933-1.235,2.953,2.953,0,0,0,.862-2.116h-3.8V12.014h5C51.75,12.191,51.75,12.543,51.75,12.72Z" transform="translate(-41.4 -6.9)"/>
      <path id="Path_2491" data-name="Path 2491" class="cls-1" d="M54.538,8.235H49.88v3.351h4.313V12.82H49.88v3.351h4.658v1.411H48.5V7h6.038Z" transform="translate(-36.252 -6.824)"/>
      <path id="Path_2492" data-name="Path 2492" class="cls-1" d="M57.113,17.581h-1.38V8.235H52.8V7h7.245V8.235H57.113Z" transform="translate(-33.135 -6.824)"/>
      <path id="Path_2493" data-name="Path 2493" class="cls-1" d="M59.9,17.581V7h1.38V17.581Z" transform="translate(-27.987 -6.824)"/>
      <path id="Path_2494" data-name="Path 2494" class="cls-1" d="M65.913,17.581h-1.38V8.235H61.6V7h7.073V8.235H65.74v9.347Z" transform="translate(-26.754 -6.824)"/>
      <path id="Path_2495" data-name="Path 2495" class="cls-1" d="M77.443,16.247a5.331,5.331,0,0,1-7.59,0,5.244,5.244,0,0,1-1.553-3.88,5.244,5.244,0,0,1,1.553-3.88,5.331,5.331,0,0,1,7.59,0A5.244,5.244,0,0,1,79,12.367,5.244,5.244,0,0,1,77.443,16.247Zm-6.555-.882a4.03,4.03,0,0,0,2.76,1.235,3.4,3.4,0,0,0,2.76-1.235,4.3,4.3,0,0,0,1.208-3,3.672,3.672,0,0,0-1.208-3,4.03,4.03,0,0,0-2.76-1.235,3.4,3.4,0,0,0-2.76,1.235,4.3,4.3,0,0,0-1.208,3A3.672,3.672,0,0,0,70.888,15.365Z" transform="translate(-21.897 -6.9)"/>
      <path id="Path_2496" data-name="Path 2496" class="cls-1" d="M75.6,17.581V7h1.553l5,8.289h0V7h1.38V17.581h-1.38L76.808,8.94h0v8.642Z" transform="translate(-16.604 -6.824)"/>
    </g>
    <path id="Path_2497" data-name="Path 2497" class="cls-2" d="M87.676,25.389a7.339,7.339,0,0,0-7.418,7.583,7.446,7.446,0,0,0,7.418,7.583,7.339,7.339,0,0,0,7.418-7.583A7.236,7.236,0,0,0,87.676,25.389Zm0,11.992a4.337,4.337,0,0,1-4.14-4.585,4.337,4.337,0,0,1,4.14-4.585c2.243,0,4.14,1.764,4.14,4.585A4.337,4.337,0,0,1,87.676,37.381ZM71.633,25.389a7.339,7.339,0,0,0-7.418,7.583,7.446,7.446,0,0,0,7.418,7.583,7.339,7.339,0,0,0,7.418-7.583A7.236,7.236,0,0,0,71.633,25.389Zm0,11.992a4.338,4.338,0,0,1-4.14-4.585,4.337,4.337,0,0,1,4.14-4.585c2.243,0,4.14,1.764,4.14,4.585A4.337,4.337,0,0,1,71.633,37.381Zm-19.148-9.7v3.174H59.9a6.739,6.739,0,0,1-1.725,4.056A7.554,7.554,0,0,1,52.485,37.2a8.127,8.127,0,0,1-8.108-8.465,8.233,8.233,0,0,1,8.108-8.465,8.455,8.455,0,0,1,5.693,2.293l2.243-2.293A10.931,10.931,0,0,0,52.658,17.1a11.64,11.64,0,0,0,0,23.279,9.824,9.824,0,0,0,7.935-3.351,10.755,10.755,0,0,0,2.76-7.407,6.756,6.756,0,0,0-.172-1.94ZM130.8,30.15c-.69-1.764-2.415-4.762-6.21-4.762s-6.9,3-6.9,7.583a7.305,7.305,0,0,0,7.245,7.583,7.05,7.05,0,0,0,6.038-3.351l-2.415-1.764a4.189,4.189,0,0,1-3.623,2.116,3.736,3.736,0,0,1-3.623-2.293l9.833-4.233ZM120.8,32.619a4.246,4.246,0,0,1,3.8-4.409,3.04,3.04,0,0,1,2.76,1.587Zm-8.108,7.231h3.278V17.805h-3.278Zm-5.175-12.874h0a5.625,5.625,0,0,0-3.968-1.764c-3.623,0-7.073,3.351-7.073,7.583a7.227,7.227,0,0,0,7.073,7.407,4.911,4.911,0,0,0,3.8-1.764h.172V39.5c0,2.822-1.553,4.409-3.968,4.409a3.843,3.843,0,0,1-3.623-2.645L97.164,42.5a7.122,7.122,0,0,0,6.555,4.409c3.8,0,6.9-2.293,6.9-7.76v-13.4h-3.105v1.235Zm-3.8,10.405a4.338,4.338,0,0,1-4.14-4.585,4.337,4.337,0,0,1,4.14-4.585c2.243,0,3.968,1.94,3.968,4.585S105.961,37.381,103.719,37.381ZM145.81,17.805h-7.763V39.85h3.278V31.561h4.485a6.881,6.881,0,1,0,0-13.756Zm.173,10.581h-4.658V20.8h4.658a3.831,3.831,0,0,1,3.8,3.7A3.993,3.993,0,0,1,145.982,28.387Zm19.838-3.174c-2.415,0-4.83,1.058-5.693,3.351L163.06,29.8a3.03,3.03,0,0,1,2.933-1.587,3.26,3.26,0,0,1,3.45,2.822v.176a6.729,6.729,0,0,0-3.278-.882c-3.105,0-6.21,1.764-6.21,4.938A5.1,5.1,0,0,0,165.3,40.2a4.825,4.825,0,0,0,4.14-2.116h.173V39.85h3.105V31.385A6.579,6.579,0,0,0,165.82,25.212Zm-.345,12.169c-1.035,0-2.588-.529-2.588-1.94,0-1.764,1.9-2.293,3.45-2.293a6.553,6.553,0,0,1,2.933.705A4.05,4.05,0,0,1,165.475,37.381Zm18.113-11.64-3.623,9.523h-.173L176,25.742h-3.45l5.693,13.4-3.278,7.407h3.278l8.8-20.81ZM154.607,39.85h3.278V17.805h-3.278Z" transform="translate(12.549 0.888)"/>
    <g id="Group_1426" data-name="Group 1426" transform="translate(0 0.478)">
      <g id="Group_1425" data-name="Group 1425">
        <g id="Group_1424" data-name="Group 1424">
          <path id="Path_2498" data-name="Path 2498" class="cls-3" d="M10.69,7.5A4.006,4.006,0,0,0,10,10.145v38.8a3.535,3.535,0,0,0,.863,2.469l.173.176,21.39-21.868v-.353L10.69,7.5Z" transform="translate(-10 -6.92)"/>
          <path id="Path_2499" data-name="Path 2499" class="cls-4" d="M29.973,30.79,22.9,23.56v-.529L29.973,15.8l.173.176L38.6,20.914c2.415,1.411,2.415,3.7,0,5.114L29.973,30.79Z" transform="translate(-0.647 -0.583)"/>
          <path id="Path_2500" data-name="Path 2500" class="cls-5" d="M39.208,27.407,31.963,20,10.4,42.045c.863.882,2.07.882,3.623.176L39.208,27.407" transform="translate(-9.71 2.624)"/>
          <path id="Path_2501" data-name="Path 2501" class="cls-6" d="M39.208,22.389,14.023,7.751c-1.553-.882-2.76-.705-3.623.176L31.963,29.8Z" transform="translate(-9.71 -7.171)"/>
        </g>
      </g>
    </g>
  </g>
</svg>
