<svg xmlns="http://www.w3.org/2000/svg" viewBox="0 0 101 101">
  <defs>
    <style>
      .cls-1 {
        fill: #fff;
        fill-rule: evenodd;
      }

      .cls-2 {
        fill: none;
      }
    </style>
  </defs>
  <g id="Back_Arrow_icon" data-name="Back Arrow icon" transform="translate(-22 -41)">
    <g id="top_bar" data-name="top bar" transform="translate(-269 -401.016)">
      <path id="Path_16" data-name="Path 16" class="cls-1" d="M370,496H323.181l16.935,16.934a2.976,2.976,0,0,1-4.209,4.209L314.864,496.1a8.918,8.918,0,0,0-1.436-1.575c-.022-.037-.04-.074-.06-.111a2.936,2.936,0,0,1-.221-.53c-.018-.055-.037-.108-.051-.164A2.973,2.973,0,0,1,313,493V493a12.272,12.272,0,0,1,1.864-3.09l21.043-21.02a2.974,2.974,0,1,1,4.209,4.2L323.188,490H370a3,3,0,0,1,3,3V493A3,3,0,0,1,370,496Z"/>
    </g>
    <rect id="Rectangle_2864" data-name="Rectangle 2864" class="cls-2" width="101" height="101" transform="translate(22 41)"/>
  </g>
</svg>
