<svg xmlns="http://www.w3.org/2000/svg" viewBox="0 0 62 60">
  <defs>
    <style>
      .cls-1 {
        fill: #a0a0a0;
      }

      .cls-2 {
        fill: none;
      }
    </style>
  </defs>
  <g id="Go_Next_icon" data-name="Go Next icon" transform="translate(-711 -586)">
    <g id="Group_50" data-name="Group 50" transform="translate(722.69 596.913)">
      <path id="Path_495" data-name="Path 495" class="cls-1" d="M39.09,16.929a.275.275,0,0,0,.079.157c0,.079.079.157.079.236s0,.079.079.157a1.34,1.34,0,0,1,0,.787c0,.079,0,.079-.079.157a.289.289,0,0,1-.079.236.275.275,0,0,1-.079.157c0,.079-.079.079-.079.157a1.838,1.838,0,0,1-.551.551c-.079,0-.079.079-.157.079a.275.275,0,0,0-.157.079c-.079,0-.157.079-.236.079s-.079,0-.157.079H1.966a1.966,1.966,0,1,1,0-3.933H32.64L20.056,3.4a1.9,1.9,0,0,1,0-2.753,1.97,1.97,0,0,1,2.753,0L38.7,16.535a1.086,1.086,0,0,1,.236.315C39.011,16.85,39.011,16.85,39.09,16.929Z" transform="translate(0 0)"/>
      <path id="Path_496" data-name="Path 496" class="cls-1" d="M25.24,39.852,37.352,27.74a1.9,1.9,0,0,1,2.753,0h0a1.9,1.9,0,0,1,0,2.753L27.993,42.6a1.9,1.9,0,0,1-2.753,0h0A1.9,1.9,0,0,1,25.24,39.852Z" transform="translate(-5.262 -5.778)"/>
    </g>
    <rect id="Rectangle_2866" data-name="Rectangle 2866" class="cls-2" width="62" height="60" transform="translate(711 586)"/>
  </g>
</svg>
