<svg xmlns="http://www.w3.org/2000/svg" viewBox="0 0 45 45">
  <defs>
    <style>
      .cls-1 {
        fill: #fff;
      }

      .cls-2 {
        fill: none;
      }
    </style>
  </defs>
  <g id="CALL_ICON" data-name="CALL ICON" transform="translate(-39 -2349)">
    <path id="Path_328" data-name="Path 328" class="cls-1" d="M23.578,20.379l-3.4-2.807a.966.966,0,0,0-.9-.06l-1.911,1.254a1.2,1.2,0,0,1-.657.179,7.319,7.319,0,0,1-1.672-.239,10.952,10.952,0,0,1-3.524-1.553,9.544,9.544,0,0,1-2.449-2.449,10.952,10.952,0,0,1-1.553-3.524A7.319,7.319,0,0,1,7.274,9.51a1.2,1.2,0,0,1,.179-.657L8.707,6.942a.81.81,0,0,0-.06-.9L5.841,2.582a.559.559,0,0,0-.956,0L2.974,4.911A3.338,3.338,0,0,0,2.436,7.6c0,.06,0,.119.06.119a2.717,2.717,0,0,0,.179.657,20.629,20.629,0,0,0,.836,2.031,28.1,28.1,0,0,0,5.2,6.987,26.685,26.685,0,0,0,6.987,5.2,14.571,14.571,0,0,0,2.031.836,3.7,3.7,0,0,0,.657.179.219.219,0,0,1,.179.06,3.2,3.2,0,0,0,2.628-.537l2.269-1.851C23.936,21.036,23.936,20.678,23.578,20.379Zm-5.614-4.837a3.33,3.33,0,0,1,3.762.179l3.4,2.807a2.982,2.982,0,0,1,0,4.658l-2.269,1.851a5.647,5.647,0,0,1-4.837.956c-.3-.06-.6-.179-.9-.239a16.874,16.874,0,0,1-2.389-1.015,28.95,28.95,0,0,1-7.644-5.674,30.743,30.743,0,0,1-5.674-7.644C1.063,10.645.7,9.868.406,9.032a4.975,4.975,0,0,1-.239-.9A5.608,5.608,0,0,1,1.123,3.3L2.974,1.03a2.946,2.946,0,0,1,4.658,0l2.807,3.4A3.229,3.229,0,0,1,10.618,8.2L9.6,9.749a4.685,4.685,0,0,0,.119.836,8.4,8.4,0,0,0,1.194,2.687,7.613,7.613,0,0,0,4.539,3.046,4.685,4.685,0,0,0,.836.119C16.411,16.557,17.964,15.542,17.964,15.542Z" transform="translate(48.03 2358.504)"/>
    <rect id="Rectangle_2906" data-name="Rectangle 2906" class="cls-2" width="45" height="45" transform="translate(39 2349)"/>
  </g>
</svg>
