<svg xmlns="http://www.w3.org/2000/svg" viewBox="0 0 100 100">
  <defs>
    <style>
      .cls-1 {
        fill: none;
      }
    </style>
  </defs>
  <g id="Empty_Cart_Icon" data-name="Empty Cart Icon" transform="translate(-968 -94)">
    <path id="Path_8208" data-name="Path 8208" d="M41.867,27.6a5.05,5.05,0,0,0-3.732,1.445,4.974,4.974,0,0,0-1.445,3.672,4.87,4.87,0,0,0,1.5,3.672,5.1,5.1,0,0,0,3.672,1.445,4.9,4.9,0,0,0,3.611-1.445,4.974,4.974,0,0,0,1.445-3.672,4.974,4.974,0,0,0-1.445-3.672A4.9,4.9,0,0,0,41.867,27.6ZM.7-13.447v5.056H5.874l9.269,19.5-3.491,6.38a5.19,5.19,0,0,0,.843,6.019,5.343,5.343,0,0,0,3.611,1.565H46.923V19.9H17.189a.532.532,0,0,1-.6-.6.49.49,0,0,1,.12-.361L19,14.722h19.14A4.744,4.744,0,0,0,40.724,14a5.718,5.718,0,0,0,1.866-1.926L51.739-4.539a2.323,2.323,0,0,0,.361-1.2,2.45,2.45,0,0,0-.722-1.806,2.93,2.93,0,0,0-1.806-.843H11.531L9.124-13.447ZM16.106,27.6a4.9,4.9,0,0,0-3.611,1.445,4.974,4.974,0,0,0-1.445,3.672,4.974,4.974,0,0,0,1.445,3.672,4.9,4.9,0,0,0,3.611,1.445,5.1,5.1,0,0,0,3.672-1.445,5.232,5.232,0,0,0,0-7.343A5.1,5.1,0,0,0,16.106,27.6Z" transform="translate(990.609 132.208)"/>
    <rect id="Rectangle_2816" data-name="Rectangle 2816" class="cls-1" width="100" height="100" transform="translate(968 94)"/>
  </g>
</svg>
