<svg xmlns="http://www.w3.org/2000/svg" viewBox="0 0 109 109">
  <defs>
    <style>
      .cls-1, .cls-3 {
        fill: none;
      }

      .cls-1 {
        stroke: #b4c535;
        stroke-width: 5px;
      }

      .cls-2 {
        fill: #b4c535;
        stroke: #fff;
      }

      .cls-4 {
        stroke: none;
      }
    </style>
  </defs>
  <g id="Order_complete_icon" data-name="Order complete icon" transform="translate(-22 -296)">
    <g id="Group_4312" data-name="Group 4312" transform="translate(-307 -453)">
      <g id="Ellipse_149" data-name="Ellipse 149" class="cls-1" transform="translate(347 767)">
        <circle class="cls-4" cx="36" cy="36" r="36"/>
        <circle class="cls-3" cx="36" cy="36" r="33.5"/>
      </g>
      <path id="Path_8191" data-name="Path 8191" class="cls-2" d="M80.9,16.486l8.025,8.025L107.42,6.019a3.528,3.528,0,0,1,4.885,0,3.714,3.714,0,0,1,0,4.885L91.371,31.838a3.373,3.373,0,0,1-4.885,0L76.019,21.371a3.528,3.528,0,0,1,0-4.885A3.373,3.373,0,0,1,80.9,16.486Z" transform="translate(288.844 784.067)"/>
    </g>
    <rect id="Rectangle_2872" data-name="Rectangle 2872" class="cls-3" width="109" height="109" transform="translate(22 296)"/>
  </g>
</svg>
