<svg xmlns="http://www.w3.org/2000/svg" viewBox="0 0 84.294 84.294">
  <defs>
    <style>
      .cls-1 {
        fill: #bababa;
      }

      .cls-2 {
        fill: #fff;
        fill-rule: evenodd;
      }
    </style>
  </defs>
  <g id="Google_Icon" data-name="Google Icon" transform="translate(0)">
    <ellipse id="Oval-1-Copy-6" class="cls-1" cx="42.147" cy="42.147" rx="42.147" ry="42.147" transform="translate(0 0)"/>
    <path id="Fill-186" class="cls-2" d="M17.046,40.436c.149-8.913,8.334-16.719,17.238-16.422,4.266-.2,8.276,1.66,11.544,4.271a61.445,61.445,0,0,1-4.382,4.543C37.519,30.11,31.932,29.334,28,32.473c-5.62,3.89-5.875,13.076-.471,17.263,5.256,4.775,15.192,2.4,16.644-4.907-3.293-.049-6.593,0-9.885-.107-.008-1.966-.016-3.932-.008-5.9,5.5-.016,11.008-.025,16.52.016.33,4.626-.281,9.549-3.119,13.374-4.3,6.055-12.931,7.822-19.664,5.229A17.314,17.314,0,0,1,17.046,40.436" transform="translate(8.288 0.255)"/>
  </g>
</svg>
