<svg xmlns="http://www.w3.org/2000/svg" viewBox="0 0 66 66">
  <defs>
    <style>
      .cls-1 {
        fill: #f15a29;
        stroke: #f15a29;
      }

      .cls-2 {
        fill: #58595b;
        stroke: #58595b;
      }

      .cls-3 {
        fill: none;
      }
    </style>
  </defs>
  <g id="Add_to_wishlist_icon" data-name="Add to wishlist icon" transform="translate(-33 -267)">
    <g id="Group_3999" data-name="Group 3999" transform="translate(42.984 280.004)">
      <path id="Path_7950" data-name="Path 7950" class="cls-1" d="M6.1,7.9a10.209,10.209,0,0,1,6.8-3.8A4.869,4.869,0,0,1,14.1,4h.3l.5-1.1a2.022,2.022,0,0,0-2-2.9.749.749,0,0,0-.5.1A13.7,13.7,0,0,0,3,5.4C-.8,10.2-.9,16.8,2.3,22.2A1.988,1.988,0,0,0,5.8,22h0a1.669,1.669,0,0,0-.1-1.8A10.82,10.82,0,0,1,6.1,7.9Z"/>
      <path id="Path_7951" data-name="Path 7951" class="cls-2" d="M43.8,5.4A14.132,14.132,0,0,0,24,3l-.6.4L22.8,3c-.3-.2-.5-.4-.8-.6a1.965,1.965,0,0,0-2.9.8h0a2.013,2.013,0,0,0,.6,2.5c.2.1.4.3.6.4l1.8,1.4a1.96,1.96,0,0,0,2.5,0l1.8-1.4A10.077,10.077,0,0,1,33.9,4a10.209,10.209,0,0,1,6.8,3.8C44,12,43.3,18.4,39.1,22.6A72.828,72.828,0,0,1,24.4,34.3a2.118,2.118,0,0,1-1.9,0A66.031,66.031,0,0,1,11.2,26a1.945,1.945,0,0,0-3.1.6h0A2,2,0,0,0,8.6,29c8.2,7.3,13.8,9.8,14.1,9.9l.8.3.8-.3c.3-.1,7.6-3.3,17.7-13.3C47.6,19.9,48.4,11.2,43.8,5.4Z"/>
    </g>
    <rect id="Rectangle_2837" data-name="Rectangle 2837" class="cls-3" width="66" height="66" transform="translate(33 267)"/>
  </g>
</svg>
