<svg xmlns="http://www.w3.org/2000/svg" viewBox="0 0 56 61">
  <defs>
    <style>
      .cls-1 {
        fill: #404040;
      }

      .cls-2 {
        fill: #f15a29;
      }

      .cls-3 {
        fill: none;
      }
    </style>
  </defs>
  <g id="Helpline_icon" data-name="Helpline icon" transform="translate(-61 -1160)">
    <path id="Path_506" data-name="Path 506" class="cls-1" d="M32.6,40,23.4,29.5a3.993,3.993,0,0,0-4.1-1.3l-.8.2a1.7,1.7,0,0,1-2-1,21.335,21.335,0,0,1-1.3-4.5,1.326,1.326,0,0,1,1-1.5A3.991,3.991,0,0,0,19,19a3.4,3.4,0,0,0,.3-2l-1-12.3A5.1,5.1,0,0,0,11.7.3L5,2.8A7.042,7.042,0,0,0,.3,8.7,48.628,48.628,0,0,0,13.8,47.5a2.342,2.342,0,0,0,3.7-.7.1.1,0,0,1,.1-.1,2.3,2.3,0,0,0-.5-2.6C8.1,35.2,3.9,22,4.8,10.2A3.921,3.921,0,0,1,7.4,7L12,5.1a1.384,1.384,0,0,1,1.8,1.2l.7,9.3a1.631,1.631,0,0,1-1.2,1.7l-1.6.4a2.421,2.421,0,0,0-1.8,2.7,29.777,29.777,0,0,0,4.9,13.3,2.471,2.471,0,0,0,2.9.9l2.1-.8a1.436,1.436,0,0,1,1.8.5l6.7,7.9a1.315,1.315,0,0,1-.6,2.1s-2,.7-3.7,1.3a2.39,2.39,0,0,0-1.4,3.2h0A2.335,2.335,0,0,0,25.5,50l5-1.8A5.22,5.22,0,0,0,32.6,40Z" transform="translate(71.969 1165.943)"/>
    <path id="Path_507" data-name="Path 507" class="cls-2" d="M22.5,3.3a2.577,2.577,0,0,0,1.8,2.2,4.984,4.984,0,0,1,.7,9.4,2.554,2.554,0,0,0-1.5,2.5h0a2.577,2.577,0,0,0,3.6,2.1A10.18,10.18,0,0,0,33,9.6,10.078,10.078,0,0,0,25.7.7a2.568,2.568,0,0,0-3.2,2.6Z" transform="translate(71.969 1165.943)"/>
    <rect id="Rectangle_2867" data-name="Rectangle 2867" class="cls-3" width="56" height="61" transform="translate(61 1160)"/>
  </g>
</svg>
