<svg xmlns="http://www.w3.org/2000/svg" viewBox="0 0 45 45">
  <defs>
    <style>
      .cls-1 {
        fill: #fff;
      }

      .cls-2 {
        fill: none;
      }
    </style>
  </defs>
  <g id="Rectangle_icon" data-name="Rectangle icon" transform="translate(-161 -2517)">
    <g id="Group_4107" data-name="Group 4107" transform="translate(171.609 2527.499)">
      <path id="Path_2485" data-name="Path 2485" class="cls-1" d="M12.176,2.194c3.253,0,3.635.015,4.921.073a6.645,6.645,0,0,1,2.262.421,3.779,3.779,0,0,1,1.4.909A3.72,3.72,0,0,1,21.669,5,6.769,6.769,0,0,1,22.09,7.26c.058,1.286.073,1.668.073,4.921s-.014,3.635-.073,4.921a6.645,6.645,0,0,1-.421,2.262,3.779,3.779,0,0,1-.909,1.4,3.72,3.72,0,0,1-1.4.909,6.77,6.77,0,0,1-2.262.421c-1.286.058-1.668.073-4.921.073s-3.635-.015-4.921-.073a6.645,6.645,0,0,1-2.262-.421,3.779,3.779,0,0,1-1.4-.909,3.72,3.72,0,0,1-.909-1.4A6.769,6.769,0,0,1,2.262,17.1c-.058-1.286-.073-1.668-.073-4.921S2.2,8.546,2.262,7.26A6.645,6.645,0,0,1,2.683,5a3.779,3.779,0,0,1,.909-1.4,3.72,3.72,0,0,1,1.4-.909,6.77,6.77,0,0,1,2.262-.421c1.286-.063,1.672-.073,4.921-.073m0-2.194C8.87,0,8.454.015,7.154.073A8.925,8.925,0,0,0,4.2.638,5.935,5.935,0,0,0,2.045,2.045,6.04,6.04,0,0,0,.638,4.2,8.931,8.931,0,0,0,.073,7.159C.015,8.454,0,8.87,0,12.176S.015,15.9.073,17.2a8.983,8.983,0,0,0,.566,2.958,5.935,5.935,0,0,0,1.407,2.156A6.04,6.04,0,0,0,4.2,23.718a8.931,8.931,0,0,0,2.958.566c1.3.058,1.711.073,5.022.073s3.722-.014,5.022-.073a8.984,8.984,0,0,0,2.958-.566,5.935,5.935,0,0,0,2.156-1.407,6.04,6.04,0,0,0,1.407-2.156,8.931,8.931,0,0,0,.566-2.958c.058-1.3.073-1.711.073-5.022s-.014-3.722-.073-5.022A8.983,8.983,0,0,0,23.724,4.2,5.935,5.935,0,0,0,22.317,2.04,6.04,6.04,0,0,0,20.161.633,8.931,8.931,0,0,0,17.2.068C15.9.015,15.482,0,12.176,0Z" transform="translate(0 0)"/>
      <path id="Path_2486" data-name="Path 2486" class="cls-1" d="M128.755,122.6a6.255,6.255,0,1,0,6.255,6.255A6.256,6.256,0,0,0,128.755,122.6Zm0,10.31a4.06,4.06,0,1,1,4.06-4.06A4.06,4.06,0,0,1,128.755,132.91Z" transform="translate(-116.579 -116.674)"/>
      <ellipse id="Ellipse_141" data-name="Ellipse 141" class="cls-1" cx="1.46" cy="1.46" rx="1.46" ry="1.46" transform="translate(17.217 4.215)"/>
    </g>
    <rect id="Rectangle_2903" data-name="Rectangle 2903" class="cls-2" width="45" height="45" transform="translate(161 2517)"/>
  </g>
</svg>
