<svg id="Group_4428" data-name="Group 4428" xmlns="http://www.w3.org/2000/svg" viewBox="0 0 272.037 70.543">
  <defs>
    <style>
      .cls-1 {
        fill: #fff;
      }
    </style>
  </defs>
  <path id="Path_2502" data-name="Path 2502" d="M261.961,70.543H10.075C4.433,70.543,0,66.663,0,61.725V8.818C0,3.88,4.433,0,10.075,0H261.961c5.642,0,10.075,3.88,10.075,8.818V61.725C272.037,66.663,267.6,70.543,261.961,70.543Z" transform="translate(0)"/>
  <g id="group-1" transform="translate(49.747 11.535)">
    <g id="Download_on_the_App_Store_Badge_US-UK_135x40" transform="translate(0 0)">
      <g id="group">
        <g id="group-2" data-name="group">
          <path id="path" class="cls-1" d="M40.276,24.35a9.381,9.381,0,0,1,4.377-7.86A9.354,9.354,0,0,0,37.24,12.4c-3.118-.335-6.143,1.9-7.732,1.9-1.62,0-4.066-1.87-6.7-1.815A9.847,9.847,0,0,0,14.5,17.657C10.905,24,13.585,33.312,17.027,38.436c1.722,2.51,3.734,5.312,6.367,5.213,2.576-.108,3.539-1.674,6.647-1.674,3.08,0,3.984,1.674,6.67,1.611,2.765-.045,4.506-2.521,6.167-5.053a20.92,20.92,0,0,0,2.82-5.855A9.03,9.03,0,0,1,40.276,24.35Z" transform="translate(-12.792 -2.427)"/>
          <path id="path-2" data-name="path" class="cls-1" d="M29.165,12.825a9.338,9.338,0,0,0,2.07-6.608,9.157,9.157,0,0,0-5.958,3.141,8.88,8.88,0,0,0-2.124,6.364A7.556,7.556,0,0,0,29.165,12.825Z" transform="translate(-6.754 -6.217)"/>
        </g>
      </g>
      <g id="group-3" data-name="group" transform="translate(46.955 19.042)">
        <path id="path-3" data-name="path" class="cls-1" d="M60.221,39.7h-3.6l-1.972-6.317H47.794L45.915,39.7H42.41L49.2,18.2H53.4Zm-6.167-8.967-1.784-5.615q-.283-.86-1.064-4.051h-.063q-.312,1.372-1,4.051L48.39,30.734Z" transform="translate(-42.41 -17.881)"/>
        <path id="path-4" data-name="path" class="cls-1" d="M70.071,29.592a8.917,8.917,0,0,1-2.1,6.252,6.079,6.079,0,0,1-4.664,2.043,4.639,4.639,0,0,1-4.32-2.2h-.063v8.169h-3.38V27.134q0-2.487-.125-5.1h2.973l.189,2.458h.063a5.947,5.947,0,0,1,9.625-.608A8.652,8.652,0,0,1,70.071,29.592Zm-3.443.126a6.475,6.475,0,0,0-1-3.733,3.54,3.54,0,0,0-5.211-.687,3.933,3.933,0,0,0-1.33,2.219,4.593,4.593,0,0,0-.157,1.05v2.586a4.19,4.19,0,0,0,1.018,2.857,3.345,3.345,0,0,0,2.644,1.165,3.439,3.439,0,0,0,2.973-1.5A6.694,6.694,0,0,0,66.628,29.718Z" transform="translate(-34.794 -15.716)"/>
        <path id="path-5" data-name="path" class="cls-1" d="M81.108,29.592a8.91,8.91,0,0,1-2.1,6.252,6.073,6.073,0,0,1-4.663,2.043,4.634,4.634,0,0,1-4.319-2.2h-.063v8.169h-3.38V27.134q0-2.487-.125-5.1h2.973l.189,2.458h.063a5.948,5.948,0,0,1,9.626-.608A8.676,8.676,0,0,1,81.108,29.592Zm-3.443.126a6.476,6.476,0,0,0-1-3.733,3.436,3.436,0,0,0-2.941-1.532,3.479,3.479,0,0,0-2.27.845,3.93,3.93,0,0,0-1.329,2.219,4.681,4.681,0,0,0-.157,1.05v2.586a4.2,4.2,0,0,0,1.015,2.857,3.352,3.352,0,0,0,2.648,1.165,3.439,3.439,0,0,0,2.973-1.5A6.694,6.694,0,0,0,77.664,29.718Z" transform="translate(-28.333 -15.716)"/>
        <path id="path-6" data-name="path" class="cls-1" d="M92.872,33.79A5.783,5.783,0,0,1,91,38.257a8.2,8.2,0,0,1-5.747,1.883,9.91,9.91,0,0,1-5.468-1.34l.783-2.872A9.133,9.133,0,0,0,85.452,37.3a4.558,4.558,0,0,0,2.976-.879,2.893,2.893,0,0,0,1.062-2.35,3.025,3.025,0,0,0-.877-2.2A8.113,8.113,0,0,0,85.7,30.206Q80.162,28.1,80.164,24.04a5.5,5.5,0,0,1,1.942-4.345A7.562,7.562,0,0,1,87.271,18a10.077,10.077,0,0,1,4.788,1.021l-.845,2.809a8.181,8.181,0,0,0-4.038-.989,4.036,4.036,0,0,0-2.784.894,2.576,2.576,0,0,0-.845,1.947,2.649,2.649,0,0,0,.969,2.106,10.884,10.884,0,0,0,3.069,1.66,10.4,10.4,0,0,1,4.006,2.615A5.527,5.527,0,0,1,92.872,33.79Z" transform="translate(-20.533 -18.001)"/>
        <path id="path-7" data-name="path" class="cls-1" d="M98.509,25.966H94.783v7.529q0,2.872,1.972,2.872a5.9,5.9,0,0,0,1.5-.16l.094,2.616a7.525,7.525,0,0,1-2.629.381,4.016,4.016,0,0,1-3.131-1.244,6.2,6.2,0,0,1-1.127-4.18V25.963h-2.22V23.378h2.22V20.538l3.32-1.021v3.86h3.726Z" transform="translate(-14.995 -17.067)"/>
        <path id="path-8" data-name="path" class="cls-1" d="M111.193,29.654a8.607,8.607,0,0,1-2,5.871,7.09,7.09,0,0,1-5.574,2.361,6.742,6.742,0,0,1-5.335-2.264,8.342,8.342,0,0,1-1.988-5.711,8.521,8.521,0,0,1,2.05-5.9,7.028,7.028,0,0,1,5.523-2.3,6.884,6.884,0,0,1,5.384,2.266A8.248,8.248,0,0,1,111.193,29.654Zm-3.507.111a7.08,7.08,0,0,0-.907-3.68,3.33,3.33,0,0,0-3.034-1.855,3.379,3.379,0,0,0-3.1,1.855,7.217,7.217,0,0,0-.907,3.744,7.07,7.07,0,0,0,.907,3.678,3.424,3.424,0,0,0,6.1-.032A7.1,7.1,0,0,0,107.686,29.766Z" transform="translate(-10.87 -15.715)"/>
        <path id="path-9" data-name="path" class="cls-1" d="M115.626,25.059a5.761,5.761,0,0,0-1.065-.1,3.174,3.174,0,0,0-2.755,1.374,5.236,5.236,0,0,0-.845,3.062v8.136h-3.378l.032-10.623q0-2.681-.127-4.882h2.944L110.555,25h.094a5.3,5.3,0,0,1,1.69-2.456,4.036,4.036,0,0,1,2.443-.831,5.326,5.326,0,0,1,.845.063Z" transform="translate(-4.317 -15.716)"/>
        <path id="path-10" data-name="path" class="cls-1" d="M127.148,29.06a8.233,8.233,0,0,1-.124,1.563h-10.14a4.539,4.539,0,0,0,1.471,3.511,4.961,4.961,0,0,0,3.317,1.084,11.026,11.026,0,0,0,4.1-.734l.53,2.392a12.474,12.474,0,0,1-5.1.958,7.312,7.312,0,0,1-5.558-2.122,7.925,7.925,0,0,1-2.018-5.695,9,9,0,0,1,1.88-5.838,6.429,6.429,0,0,1,5.319-2.487,5.635,5.635,0,0,1,4.98,2.487A8.506,8.506,0,0,1,127.148,29.06Zm-3.223-.894a4.751,4.751,0,0,0-.656-2.649,2.938,2.938,0,0,0-2.694-1.437,3.188,3.188,0,0,0-2.69,1.4,5.2,5.2,0,0,0-1,2.679h7.041Z" transform="translate(-0.722 -15.727)"/>
      </g>
      <g id="group-4" data-name="group" transform="translate(48.962 0.548)">
        <g id="group-5" data-name="group">
          <path id="path-11" data-name="path" class="cls-1" d="M52.2,11.957a5.356,5.356,0,0,1-1.677,4.3,6.585,6.585,0,0,1-4.412,1.332,20.074,20.074,0,0,1-2.43-.126V7.066a17.6,17.6,0,0,1,2.862-.22,6.088,6.088,0,0,1,4.106,1.207A4.925,4.925,0,0,1,52.2,11.957ZM50.444,12a3.907,3.907,0,0,0-.961-2.838,3.744,3.744,0,0,0-2.808-.987,6.9,6.9,0,0,0-1.338.11v7.9a8.608,8.608,0,0,0,1.122.047A3.888,3.888,0,0,0,49.4,15.155,4.381,4.381,0,0,0,50.444,12Z" transform="translate(-43.676 -6.377)"/>
          <path id="path-12" data-name="path" class="cls-1" d="M57.612,12.524a4.228,4.228,0,0,1-.985,2.884,3.482,3.482,0,0,1-2.738,1.16,3.31,3.31,0,0,1-2.622-1.113,4.1,4.1,0,0,1-.975-2.805,4.186,4.186,0,0,1,1.007-2.9,3.459,3.459,0,0,1,2.714-1.128,3.386,3.386,0,0,1,2.646,1.112A4.07,4.07,0,0,1,57.612,12.524Zm-1.723.055a3.5,3.5,0,0,0-.445-1.808,1.637,1.637,0,0,0-1.49-.911,1.662,1.662,0,0,0-1.524.911,3.544,3.544,0,0,0-.445,1.839,3.5,3.5,0,0,0,.445,1.808,1.672,1.672,0,0,0,1.508.911,1.654,1.654,0,0,0,1.49-.928A3.475,3.475,0,0,0,55.888,12.579Z" transform="translate(-39.803 -5.283)"/>
          <path id="path-13" data-name="path" class="cls-1" d="M66.763,8.719l-2.338,7.618H62.9l-.969-3.308a25.153,25.153,0,0,1-.6-2.461H61.3a18.3,18.3,0,0,1-.6,2.461l-1.029,3.308H58.134l-2.2-7.618h1.707l.845,3.621q.307,1.285.507,2.445h.03q.186-.955.617-2.429L60.7,8.721h1.354l1.016,3.558q.369,1.3.6,2.508h.046a24.37,24.37,0,0,1,.507-2.508l.907-3.558h1.631Z" transform="translate(-36.5 -5.224)"/>
          <path id="path-14" data-name="path" class="cls-1" d="M70.617,16.4H68.955V12.034q0-2.017-1.506-2.017a1.488,1.488,0,0,0-1.2.554,1.99,1.99,0,0,0-.461,1.306V16.4H64.126V10.957q0-1-.06-2.18h1.46L65.6,9.968h.046a2.428,2.428,0,0,1,.861-.919,2.768,2.768,0,0,1,1.506-.428,2.361,2.361,0,0,1,1.739.69,3.391,3.391,0,0,1,.861,2.524Z" transform="translate(-31.741 -5.285)"/>
          <path id="path-15" data-name="path" class="cls-1" d="M71.7,17.669h-1.66V6.556H71.7Z" transform="translate(-28.243 -6.556)"/>
          <path id="path-16" data-name="path" class="cls-1" d="M79.961,12.524a4.228,4.228,0,0,1-.984,2.884,3.484,3.484,0,0,1-2.738,1.16,3.305,3.305,0,0,1-2.622-1.113,4.1,4.1,0,0,1-.975-2.805,4.186,4.186,0,0,1,1.007-2.9A3.458,3.458,0,0,1,76.36,8.623a3.39,3.39,0,0,1,2.648,1.112A4.07,4.07,0,0,1,79.961,12.524Zm-1.725.055a3.5,3.5,0,0,0-.445-1.808A1.634,1.634,0,0,0,76.3,9.859a1.659,1.659,0,0,0-1.524.911,3.545,3.545,0,0,0-.445,1.839,3.5,3.5,0,0,0,.445,1.808,1.672,1.672,0,0,0,1.508.911,1.652,1.652,0,0,0,1.489-.928A3.46,3.46,0,0,0,78.236,12.579Z" transform="translate(-26.721 -5.283)"/>
          <path id="path-17" data-name="path" class="cls-1" d="M84.6,16.4H83.1l-.124-.877h-.046a2.541,2.541,0,0,1-2.183,1.05,2.231,2.231,0,0,1-1.706-.69,2.187,2.187,0,0,1-.585-1.551A2.377,2.377,0,0,1,79.606,12.2a5.857,5.857,0,0,1,3.223-.721v-.142a1.351,1.351,0,0,0-1.552-1.5,3.428,3.428,0,0,0-1.948.564l-.338-1.112a4.722,4.722,0,0,1,2.564-.658q2.93,0,2.933,3.151v2.805A12.127,12.127,0,0,0,84.6,16.4ZM82.87,13.778V12.6q-2.749-.048-2.749,1.535a1.068,1.068,0,0,0,1.13,1.191,1.657,1.657,0,0,0,1.016-.352,1.445,1.445,0,0,0,.576-.9A1.462,1.462,0,0,0,82.87,13.778Z" transform="translate(-23.315 -5.283)"/>
          <path id="path-18" data-name="path" class="cls-1" d="M90.919,17.669H89.445l-.078-1.223h-.046a2.477,2.477,0,0,1-2.4,1.4,2.792,2.792,0,0,1-2.245-1.081,4.265,4.265,0,0,1-.891-2.805,4.471,4.471,0,0,1,.969-2.994A2.954,2.954,0,0,1,87.06,9.895a2.227,2.227,0,0,1,2.105,1.034H89.2V6.556H90.86v9.061Q90.86,16.729,90.919,17.669ZM89.2,14.456v-1.27a2.538,2.538,0,0,0-.046-.533,1.936,1.936,0,0,0-.6-1.026,1.615,1.615,0,0,0-1.111-.415,1.7,1.7,0,0,0-1.462.753,3.272,3.272,0,0,0-.533,1.928,3.05,3.05,0,0,0,.511,1.834,1.7,1.7,0,0,0,1.452.751,1.589,1.589,0,0,0,1.313-.627A2.113,2.113,0,0,0,89.2,14.456Z" transform="translate(-20.198 -6.556)"/>
          <path id="path-19" data-name="path" class="cls-1" d="M99.951,12.524a4.228,4.228,0,0,1-.984,2.884,3.48,3.48,0,0,1-2.738,1.16,3.314,3.314,0,0,1-2.622-1.113,4.1,4.1,0,0,1-.975-2.805,4.186,4.186,0,0,1,1.007-2.9,3.46,3.46,0,0,1,2.716-1.128A3.383,3.383,0,0,1,99,9.735,4.07,4.07,0,0,1,99.951,12.524Zm-1.722.055a3.5,3.5,0,0,0-.445-1.808,1.639,1.639,0,0,0-1.492-.911,1.665,1.665,0,0,0-1.524.911,3.544,3.544,0,0,0-.446,1.839,3.5,3.5,0,0,0,.446,1.808,1.683,1.683,0,0,0,3-.016A3.49,3.49,0,0,0,98.229,12.579Z" transform="translate(-15.02 -5.283)"/>
          <path id="path-20" data-name="path" class="cls-1" d="M105.3,16.4h-1.66V12.034q0-2.017-1.508-2.017a1.482,1.482,0,0,0-1.2.554,1.982,1.982,0,0,0-.461,1.306V16.4H98.811V10.957q0-1-.059-2.18h1.459l.078,1.191h.046a2.452,2.452,0,0,1,.861-.919A2.774,2.774,0,0,1,102.7,8.62a2.36,2.36,0,0,1,1.738.69,3.385,3.385,0,0,1,.861,2.524Z" transform="translate(-11.437 -5.285)"/>
          <path id="path-21" data-name="path" class="cls-1" d="M111.617,10.711h-1.829v3.7c0,.94.325,1.411.969,1.411a2.873,2.873,0,0,0,.74-.079l.043,1.285a3.668,3.668,0,0,1-1.29.189,1.967,1.967,0,0,1-1.536-.611,3.029,3.029,0,0,1-.555-2.054V10.711h-1.092V9.442h1.092v-1.4l1.628-.5v1.9h1.829v1.27Z" transform="translate(-6.571 -5.947)"/>
          <path id="path-22" data-name="path" class="cls-1" d="M117.88,17.669h-1.663V13.338q0-2.048-1.5-2.049a1.59,1.59,0,0,0-1.585,1.188,2.168,2.168,0,0,0-.078.609v4.581h-1.66V6.556h1.66v4.591h.032a2.5,2.5,0,0,1,2.245-1.252,2.292,2.292,0,0,1,1.709.69,3.51,3.51,0,0,1,.845,2.555Z" transform="translate(-4.039 -6.556)"/>
          <path id="path-23" data-name="path" class="cls-1" d="M123.66,12.232A4.166,4.166,0,0,1,123.6,13h-4.983a2.241,2.241,0,0,0,.721,1.724,2.445,2.445,0,0,0,1.631.533,5.412,5.412,0,0,0,2.015-.36l.26,1.176a6.153,6.153,0,0,1-2.508.47,3.585,3.585,0,0,1-2.728-1.042,3.883,3.883,0,0,1-.991-2.8,4.414,4.414,0,0,1,.923-2.868,3.154,3.154,0,0,1,2.613-1.222,2.763,2.763,0,0,1,2.443,1.222A4.124,4.124,0,0,1,123.66,12.232Zm-1.585-.438a2.315,2.315,0,0,0-.322-1.3,1.444,1.444,0,0,0-1.322-.706,1.568,1.568,0,0,0-1.322.69,2.593,2.593,0,0,0-.493,1.317h3.459Z" transform="translate(-0.746 -5.288)"/>
        </g>
      </g>
    </g>
  </g>
</svg>
