<svg xmlns="http://www.w3.org/2000/svg" viewBox="0 0 64 62">
  <defs>
    <style>
      .cls-1 {
        fill: #404040;
      }

      .cls-2 {
        fill: none;
      }
    </style>
  </defs>
  <g id="Rate_us_icon" data-name="Rate us icon" transform="translate(-61 -1283)">
    <path id="Path_508" data-name="Path 508" class="cls-1" d="M42.8,16H37C41,0,30,0,30,0H27.2a4.63,4.63,0,0,0-4.6,5.2l.1,1.1A4.768,4.768,0,0,1,22,9.4l-3.3,4.8a2.439,2.439,0,0,0,.8,3.4h0a2.439,2.439,0,0,0,3.4-.8l4.2-6.2A4.317,4.317,0,0,0,28,8V7.4l-.1-1.1a1.044,1.044,0,0,1,1-1.3H30a3.128,3.128,0,0,1,2,1.1c.5.7,1.6,2.9.2,8.7L30.6,21H42.4a2.279,2.279,0,0,1,2.2,2.9l-4,14.4A2.341,2.341,0,0,1,38.4,40H16.6a2.689,2.689,0,0,0-2.7,2.7,2.36,2.36,0,0,0,.7,1.6,2.41,2.41,0,0,0,1.8.7H38.6a6.961,6.961,0,0,0,6.7-5.1l4.2-15.1A6.876,6.876,0,0,0,42.8,16Z" transform="translate(68 1291)"/>
    <rect id="Rectangle_2868" data-name="Rectangle 2868" class="cls-2" width="64" height="62" transform="translate(61 1283)"/>
  </g>
</svg>
