<svg xmlns="http://www.w3.org/2000/svg" viewBox="0 0 70 70">
  <defs>
    <style>
      .cls-1 {
        fill: #f15a29;
        stroke: #f15a29;
      }

      .cls-2 {
        fill: #404040;
        stroke: #404040;
      }

      .cls-3 {
        fill: none;
      }
    </style>
  </defs>
  <g id="Enter_Password_Icon" data-name="Enter Password Icon" transform="translate(-74 -914)">
    <g id="Group_1445" data-name="Group 1445" transform="translate(-5 182)">
      <path id="Path_7527" data-name="Path 7527" class="cls-1" d="M9.273,12.818a8.545,8.545,0,1,1,17.091,0,2.136,2.136,0,1,0,4.273,0A12.818,12.818,0,0,0,5,12.818v6.409H9.273Z" transform="translate(95.705 744)"/>
      <path id="Path_7529" data-name="Path 7529" class="cls-2" d="M30.977,18H5.341A5.289,5.289,0,0,0,0,23.341V40.432a5.289,5.289,0,0,0,5.341,5.341H30.977a5.289,5.289,0,0,0,5.341-5.341V23.341A5.289,5.289,0,0,0,30.977,18Zm1.068,22.432A1.149,1.149,0,0,1,30.977,41.5H5.341a1.149,1.149,0,0,1-1.068-1.068V23.341a1.149,1.149,0,0,1,1.068-1.068H30.977a1.149,1.149,0,0,1,1.068,1.068Z" transform="translate(95.364 745.227)"/>
    </g>
    <rect id="Rectangle_2835" data-name="Rectangle 2835" class="cls-3" width="70" height="70" transform="translate(74 914)"/>
  </g>
</svg>
