<svg xmlns="http://www.w3.org/2000/svg" viewBox="0 0 64 64">
  <defs>
    <style>
      .cls-1 {
        fill: #575757;
      }

      .cls-2 {
        fill: #404040;
      }

      .cls-3 {
        fill: #f15a29;
      }

      .cls-4 {
        fill: none;
      }
    </style>
  </defs>
  <g id="Logout_icon" data-name="Logout icon" transform="translate(-61 -1538)">
    <g id="Group_83" data-name="Group 83" transform="translate(68 1545)">
      <g id="Group_82" data-name="Group 82">
        <path id="Path_516" data-name="Path 516" class="cls-1" d="M43.2,0H22.8A6.744,6.744,0,0,0,16,6.8v7.8a2.5,2.5,0,0,0,5,0V6.8A1.793,1.793,0,0,1,22.8,5H43.3a1.793,1.793,0,0,1,1.8,1.8V43.3a1.793,1.793,0,0,1-1.8,1.8H22.8A1.793,1.793,0,0,1,21,43.3V34.5a2.5,2.5,0,0,0-5,0v8.8a6.807,6.807,0,0,0,6.8,6.8H43.3a6.807,6.807,0,0,0,6.8-6.8V6.8A6.893,6.893,0,0,0,43.2,0Z"/>
        <path id="Path_517" data-name="Path 517" class="cls-2" d="M38,27c.1,0,.1,0,.2-.1a.367.367,0,0,0,.3-.1.349.349,0,0,0,.2-.1c.1,0,.1-.1.2-.1a2.336,2.336,0,0,0,.7-.7c0-.1.1-.1.1-.2a.349.349,0,0,1,.1-.2c0-.1.1-.2.1-.3s0-.1.1-.2a1.7,1.7,0,0,0,0-1c0-.1,0-.1-.1-.2a.367.367,0,0,0-.1-.3.349.349,0,0,0-.1-.2c0-.1-.1-.1-.1-.2-.1-.1-.2-.3-.3-.4l-9.2-9.2A2.475,2.475,0,0,0,26.6,17l4.9,4.9H2.5A2.628,2.628,0,0,0,0,24.5,2.476,2.476,0,0,0,2.5,27H38Z"/>
      </g>
      <path id="Path_518" data-name="Path 518" class="cls-3" d="M26.4,34.1l4.4-4.4a2.416,2.416,0,0,1,3.5,0h0a2.416,2.416,0,0,1,0,3.5l-4.4,4.4a2.416,2.416,0,0,1-3.5,0h0A2.416,2.416,0,0,1,26.4,34.1Z"/>
    </g>
    <rect id="Rectangle_2870" data-name="Rectangle 2870" class="cls-4" width="64" height="64" transform="translate(61 1538)"/>
  </g>
</svg>
