<svg xmlns="http://www.w3.org/2000/svg" viewBox="0 0 317 151">
  <defs>
    <style>
      .cls-1 {
        fill: #f26722;
      }

      .cls-2 {
        fill: #4d4d4d;
      }

      .cls-3 {
        fill: none;
      }
    </style>
  </defs>
  <g id="Logo_Icon" data-name="Logo Icon" transform="translate(-372 -55)">
    <g id="Group_4357" data-name="Group 4357" transform="translate(24451.559 -6764.016)">
      <g id="Group_4141" data-name="Group 4141" transform="translate(-24031.559 6915.137)">
        <g id="Group_4133" data-name="Group 4133">
          <path id="Path_8076" data-name="Path 8076" class="cls-1" d="M126.517,344.9v28.994h17.34v6.585H118.7V344.947h7.817Z" transform="translate(-118.7 -344.9)"/>
        </g>
        <g id="Group_4134" data-name="Group 4134" transform="translate(27.526 9.144)">
          <path id="Path_8077" data-name="Path 8077" class="cls-1" d="M185.612,384.43a6.28,6.28,0,0,0,4.6,1.564,6.414,6.414,0,0,0,3.7-1.09,4.376,4.376,0,0,0,1.9-2.274H202a11.752,11.752,0,0,1-4.6,6.633,13.465,13.465,0,0,1-7.485,1.99,15.548,15.548,0,0,1-5.5-.947,11.874,11.874,0,0,1-4.122-2.748,12.158,12.158,0,0,1-2.606-4.264,16.524,16.524,0,0,1,.047-10.9,12.314,12.314,0,0,1,2.7-4.311,12.086,12.086,0,0,1,4.169-2.842,13.163,13.163,0,0,1,5.354-1.042,12.181,12.181,0,0,1,5.733,1.279,11.736,11.736,0,0,1,4.027,3.411A14.016,14.016,0,0,1,202,373.77a19.178,19.178,0,0,1,.521,5.733H183.954A6.62,6.62,0,0,0,185.612,384.43Zm8.007-13.5a4.882,4.882,0,0,0-3.837-1.374,5.982,5.982,0,0,0-2.8.569,5.453,5.453,0,0,0-1.8,1.421,5.994,5.994,0,0,0-.948,1.8,8.286,8.286,0,0,0-.332,1.706h11.465A7.928,7.928,0,0,0,193.619,370.927Z" transform="translate(-176.8 -364.2)"/>
        </g>
        <g id="Group_4135" data-name="Group 4135" transform="translate(64.953)">
          <path id="Path_8078" data-name="Path 8078" class="cls-1" d="M266.839,344.9l8.338,24.446h.095l7.864-24.446h10.991v35.532h-7.343v-25.2h-.095l-8.717,25.252h-6.017l-8.717-24.967h-.095v24.967H255.8V344.947h11.039Z" transform="translate(-255.8 -344.9)"/>
        </g>
        <g id="Group_4136" data-name="Group 4136" transform="translate(108.302 9.096)">
          <path id="Path_8079" data-name="Path 8079" class="cls-1" d="M349.337,368.6a8.326,8.326,0,0,1,2.8-2.653,12.545,12.545,0,0,1,3.79-1.421,21.689,21.689,0,0,1,4.264-.426,27.936,27.936,0,0,1,3.932.284,11.284,11.284,0,0,1,3.648,1.09,7.269,7.269,0,0,1,2.7,2.227,6.046,6.046,0,0,1,1.042,3.743v13.408a24.521,24.521,0,0,0,.19,3.316,6.106,6.106,0,0,0,.711,2.369h-7.154a9.343,9.343,0,0,1-.332-1.232,11.906,11.906,0,0,1-.19-1.279,9.235,9.235,0,0,1-3.98,2.464,15.63,15.63,0,0,1-4.69.711,13.56,13.56,0,0,1-3.458-.426,8.116,8.116,0,0,1-2.8-1.374,6.077,6.077,0,0,1-1.848-2.369,8.333,8.333,0,0,1-.663-3.458,7.378,7.378,0,0,1,.758-3.6,6.65,6.65,0,0,1,1.99-2.274,8.885,8.885,0,0,1,2.8-1.279,23.592,23.592,0,0,1,3.174-.663c1.042-.142,2.085-.284,3.127-.379a19.8,19.8,0,0,0,2.748-.426,4.687,4.687,0,0,0,1.9-.853,1.989,1.989,0,0,0,.663-1.658,3.769,3.769,0,0,0-.379-1.8,2.633,2.633,0,0,0-.995-1.042,4.628,4.628,0,0,0-1.421-.521,10.5,10.5,0,0,0-1.753-.142,5.159,5.159,0,0,0-3.269.9,3.892,3.892,0,0,0-1.374,2.985h-7.154A7.928,7.928,0,0,1,349.337,368.6Zm13.976,10a12.452,12.452,0,0,1-1.421.379c-.521.095-1.042.189-1.611.237s-1.137.142-1.706.237c-.521.095-1.042.237-1.563.379a4.962,4.962,0,0,0-1.327.663,2.546,2.546,0,0,0-.9,1.09,3.449,3.449,0,0,0-.332,1.658,3.374,3.374,0,0,0,.332,1.611,3.332,3.332,0,0,0,.948,1.042,3.955,3.955,0,0,0,1.374.521,9.4,9.4,0,0,0,1.658.142,6.13,6.13,0,0,0,3.222-.711,4.731,4.731,0,0,0,2.369-3.648,11.7,11.7,0,0,0,.142-1.611v-2.653A4.2,4.2,0,0,1,363.313,378.6Z" transform="translate(-347.3 -364.1)"/>
        </g>
        <g id="Group_4137" data-name="Group 4137" transform="translate(138.007 9.096)">
          <path id="Path_8080" data-name="Path 8080" class="cls-1" d="M416.68,364.811V369.6h.095a8.934,8.934,0,0,1,1.327-2.227,9.716,9.716,0,0,1,1.942-1.753,10.553,10.553,0,0,1,2.322-1.137,8.074,8.074,0,0,1,2.606-.379,6.6,6.6,0,0,1,1.563.237v6.585c-.332-.047-.711-.142-1.184-.19s-.9-.095-1.327-.095a7.58,7.58,0,0,0-3.269.663,6.149,6.149,0,0,0-2.179,1.753,6.9,6.9,0,0,0-1.184,2.606,14.014,14.014,0,0,0-.332,3.222v11.7H410V364.858h6.68Z" transform="translate(-410 -364.1)"/>
        </g>
        <g id="Group_4138" data-name="Group 4138" transform="translate(155.584 9.144)">
          <path id="Path_8081" data-name="Path 8081" class="cls-1" d="M460.27,369.506a4.9,4.9,0,0,0-2.843.758,6.193,6.193,0,0,0-1.848,1.99,9.706,9.706,0,0,0-1.042,2.7,15.3,15.3,0,0,0-.284,2.89,14.456,14.456,0,0,0,.284,2.843,8.964,8.964,0,0,0,.947,2.606,5.3,5.3,0,0,0,1.8,1.9,4.841,4.841,0,0,0,2.8.758,5.265,5.265,0,0,0,3.932-1.421,6.857,6.857,0,0,0,1.706-3.79h6.822a11.783,11.783,0,0,1-3.98,7.817,12.776,12.776,0,0,1-8.433,2.7,14.684,14.684,0,0,1-5.306-.947,12.459,12.459,0,0,1-4.122-2.7,13.063,13.063,0,0,1-2.653-4.169,14.683,14.683,0,0,1-.948-5.306,17.428,17.428,0,0,1,.853-5.543,12.594,12.594,0,0,1,2.558-4.453,11.589,11.589,0,0,1,4.122-2.89,13.844,13.844,0,0,1,5.59-1.042,15.234,15.234,0,0,1,4.406.616,11.665,11.665,0,0,1,3.79,1.8,9.739,9.739,0,0,1,2.7,3.032,9.543,9.543,0,0,1,1.184,4.311h-6.917C465.008,370.975,463.3,369.506,460.27,369.506Z" transform="translate(-447.1 -364.2)"/>
        </g>
        <g id="Group_4139" data-name="Group 4139" transform="translate(185.052)">
          <path id="Path_8082" data-name="Path 8082" class="cls-1" d="M516.359,344.9v13.407h.142a8.174,8.174,0,0,1,3.458-3.269A9.452,9.452,0,0,1,524.034,354a11.737,11.737,0,0,1,4.643.758,6.638,6.638,0,0,1,2.843,2.132,8.162,8.162,0,0,1,1.469,3.316,20.6,20.6,0,0,1,.427,4.359v15.918h-7.059V365.935a8.932,8.932,0,0,0-.995-4.738,3.88,3.88,0,0,0-3.553-1.564,4.854,4.854,0,0,0-4.169,1.706c-.853,1.137-1.279,3.032-1.279,5.638v13.5H509.3V344.947h7.059Z" transform="translate(-509.3 -344.9)"/>
        </g>
        <g id="Group_4140" data-name="Group 4140" transform="translate(213.335 9.144)">
          <path id="Path_8083" data-name="Path 8083" class="cls-1" d="M577.812,384.43a6.28,6.28,0,0,0,4.6,1.564,6.414,6.414,0,0,0,3.7-1.09A4.375,4.375,0,0,0,588,382.629H594.2a11.751,11.751,0,0,1-4.6,6.633,13.465,13.465,0,0,1-7.485,1.99,15.548,15.548,0,0,1-5.5-.947,11.876,11.876,0,0,1-4.122-2.748,12.157,12.157,0,0,1-2.606-4.264,16.524,16.524,0,0,1,.047-10.9,12.315,12.315,0,0,1,2.7-4.311,12.088,12.088,0,0,1,4.169-2.842,13.165,13.165,0,0,1,5.354-1.042,12.181,12.181,0,0,1,5.733,1.279,11.735,11.735,0,0,1,4.027,3.411,14.015,14.015,0,0,1,2.274,4.88,19.177,19.177,0,0,1,.521,5.733H576.154C576.154,381.776,576.722,383.435,577.812,384.43Zm7.959-13.5a4.882,4.882,0,0,0-3.837-1.374,5.982,5.982,0,0,0-2.8.569,5.453,5.453,0,0,0-1.8,1.421,5.994,5.994,0,0,0-.947,1.8,8.281,8.281,0,0,0-.332,1.706h11.513A7.939,7.939,0,0,0,585.771,370.927Z" transform="translate(-569 -364.2)"/>
        </g>
      </g>
      <path id="Union_12" data-name="Union 12" class="cls-2" d="M35.959,134.359V72.673A36.17,36.17,0,0,1,12.92,64.1a11.764,11.764,0,0,1-1.881-1.568,12.893,12.893,0,0,1-1.1-1.252,36.323,36.323,0,1,1,26.97,11.386v61.688a.474.474,0,1,1-.948,0Zm-2.572-62.8a8.624,8.624,0,0,1-4.317-2.54,10.571,10.571,0,0,1,.251,1.836.458.458,0,0,1,.046.135A35.146,35.146,0,0,0,33.387,71.558Zm6.188-.025a35.032,35.032,0,0,0,9.341-2.17,4.485,4.485,0,0,1-2.2-1.283,4.7,4.7,0,0,1-1.144-1.859A8.835,8.835,0,0,1,39.575,71.533ZM41.6,66.28a.458.458,0,0,1,0,.663l-3.975,3.975c6.837-.7,7.817-6.785,7.955-8.618a8.565,8.565,0,0,0-5.97,2.369,10.126,10.126,0,0,0-2.592,5.53l3.919-3.919a.458.458,0,0,1,.663,0Zm-13.17.142A8.035,8.035,0,0,0,35.2,70.873l-3.931-3.93a.469.469,0,0,1,.663-.663l3.9,3.9c-.357-2.43-1.9-7.622-8.538-7.875A12.97,12.97,0,0,0,28.427,66.422Zm-.765,4.068-3.216-3.216a.469.469,0,0,1,.664-.663l3.228,3.228c-.342-2.1-1.712-6.246-7.16-6.5a8.911,8.911,0,0,0,.995,3.411,6.5,6.5,0,0,0,3.812,3.377q.217.067.436.131A8.329,8.329,0,0,0,27.662,70.49ZM22.31,68.771a9.828,9.828,0,0,1-2-4.436,3.118,3.118,0,0,1-.226.239,3.791,3.791,0,0,1-2.748,1.042,5.977,5.977,0,0,1-.859-.064A35.359,35.359,0,0,0,22.31,68.771Zm25.067-1.308a3.8,3.8,0,0,0,2.7,1.137,3.888,3.888,0,0,0,.911-.108q.72-.33,1.422-.69a3.472,3.472,0,0,0,.367-.339,3.761,3.761,0,0,0,1.08-2.274H46.3A3.9,3.9,0,0,0,47.377,67.464Zm-10.47-.383c.023-.055.047-.111.071-.167l-.071.074Zm-.948,0v-.049l-.038-.042Zm18.424-.37a35.653,35.653,0,0,0,8.475-7.047,11.063,11.063,0,0,1-5.18,1.264H53.037a4.685,4.685,0,0,1,.4.379,4.742,4.742,0,0,1,1.384,3.229.462.462,0,0,1,0,.372A4.881,4.881,0,0,1,54.383,66.709Zm-17.476-7.3V65.6c4.912-5.873.814-11.494-.474-12.965-5.119,5.46-2.1,10.805-.474,12.922V59.41a.474.474,0,1,1,.948,0ZM26.733,64.585a13.232,13.232,0,0,1-.411-2.319q-.341.033-.69.033A7.191,7.191,0,0,1,21,60.624a5.78,5.78,0,0,1,.108,1.733A8.193,8.193,0,0,1,26.733,64.585ZM14.971,59.078c-.084,4.041,2.636,5.239,3.244,5.457a2.274,2.274,0,0,0,1.21-.671,3.348,3.348,0,0,0,.568-3.316,9.586,9.586,0,0,0-2.606-4.358,10.387,10.387,0,0,0-3.673-2.413A8.606,8.606,0,0,1,14.971,59.078ZM16.316,64.5c-.1-.08-.2-.166-.3-.257a6.591,6.591,0,0,1-1.99-5.259c.09-4.407-1.784-5.485-2.015-5.583q-.131-.008-.259-.008a2.647,2.647,0,0,0-2.037.758c-1.292,1.292-.829,4.064.978,6.468a35.75,35.75,0,0,0,2.686,2.555A8.61,8.61,0,0,0,16.316,64.5Zm37.526-.257a3.9,3.9,0,0,0-1.064-2.18,3.614,3.614,0,0,0-2.7-1.137,3.689,3.689,0,0,0-2.7,1.137,3.758,3.758,0,0,0-1.069,2.18Zm-20.049-.41a10.78,10.78,0,0,1-1.151-4.706,10.522,10.522,0,0,1,3.316-7.389v-.2a6.416,6.416,0,0,1-5.393-2.893l1.414,2.952c0,.047.047.095.047.142a7.132,7.132,0,0,1-3.065,9.749A9.022,9.022,0,0,1,33.793,63.832Zm5.5-.2A9.885,9.885,0,0,1,46.1,61.305a.43.43,0,0,1,.332.142.461.461,0,0,1,.07.092q.1-.12.214-.234a4.983,4.983,0,0,1,1.019-.787.455.455,0,0,1,.118-.4l2.084-2.084a10.62,10.62,0,0,1-1.842-2.214L40.6,60.831a.674.674,0,0,1-.284.095.493.493,0,0,1-.213-.057A9.349,9.349,0,0,1,39.289,63.632ZM20.136,51.972a.174.174,0,0,1-.047.142A6.416,6.416,0,0,0,19.33,55a6.289,6.289,0,0,0,6.254,6.3l.047.474v-.474a6.319,6.319,0,0,0,6.3-6.254,6.64,6.64,0,0,0-.805-3.079.284.284,0,0,1-.047-.189l-3.531-7.438H24.232ZM48.8,55.146a9.976,9.976,0,0,0,8.765,4.785q.388,0,.757-.025V50.386q-.369-.024-.757-.024A10.233,10.233,0,0,0,48.8,55.146Zm3.987,4.785a10.725,10.725,0,0,1-2.131-1.287l-1.287,1.287h.044a4.658,4.658,0,0,1,.666-.048,4.982,4.982,0,0,1,.693.048Zm6.482-.13a9.913,9.913,0,0,0,6.918-4.655,9.816,9.816,0,0,0-6.918-4.657Zm-19.085-.168,2.22-4.44-2.278-4.643a9.08,9.08,0,0,1-3.217.961v.234A12.775,12.775,0,0,1,40.183,59.633ZM43.35,55a.656.656,0,0,1,0,.426l-1.8,3.6,5.78-3.837-5.78-3.885ZM8.1,57.554A4.212,4.212,0,0,1,9,53.488q.1-.1.207-.19H5.544a2.055,2.055,0,0,1-.206-.01A35.521,35.521,0,0,0,8.1,57.554Zm9.952-2.029q.2.2.39.408A7.454,7.454,0,0,1,18.383,55a6.579,6.579,0,0,1,.237-1.737,1.823,1.823,0,0,1-.333.031H15.037A11.3,11.3,0,0,1,18.051,55.525Zm30.064-1.039a10.806,10.806,0,0,1,1.828-2.175l-2.092-2.092H43.208a.474.474,0,0,1-.474-.474V48.029a6.029,6.029,0,0,1-1.564,1.841Zm18.668-.228a35.321,35.321,0,0,0,2.051-4.04H61.882A10.661,10.661,0,0,1,66.783,54.258Zm-56.6-3.045a2.1,2.1,0,0,1-.3,1.089h8.4a.95.95,0,0,0,.948-.948V49.417a2.046,2.046,0,0,1-1.042.281,2.037,2.037,0,0,1,0-4.074,2.046,2.046,0,0,1,1.042.281v-3.36H11.441a2.044,2.044,0,0,1,.31,1.089,2.037,2.037,0,1,1-4.074,0,2.044,2.044,0,0,1,.309-1.089H4.6v8.812a.95.95,0,0,0,.948.948h.788a2.053,2.053,0,0,1-.314-1.089,2.085,2.085,0,1,1,4.169,0Zm-3.222-.047A1.137,1.137,0,1,0,8.1,50.029,1.153,1.153,0,0,0,6.965,51.166Zm43.724.517a10.8,10.8,0,0,1,2.221-1.322H49.367ZM35.912,50.55a6.37,6.37,0,0,0-2.676-4.785,6.179,6.179,0,0,1-.742-.39,6.721,6.721,0,0,0-2.267-.51A5.912,5.912,0,0,0,35.912,50.55Zm1.042,0a7.953,7.953,0,0,0,2.993-1,.463.463,0,0,1,.04-.045.392.392,0,0,1,.189-.1,5.531,5.531,0,0,0,2.464-4.544A5.912,5.912,0,0,0,36.954,50.55ZM20.231,36.338V49.809l3.223-6.088.046-4.446a2.419,2.419,0,0,1-1.355-3.885H19.992A1.965,1.965,0,0,1,20.231,36.338ZM1,36.338A35.1,35.1,0,0,0,3.6,49.648V36.338A1.921,1.921,0,0,1,5.544,34.4h.331V33.116h-1.8a.475.475,0,0,1-.474-.474V30.415a.475.475,0,0,1,.474-.474H8.386a5.97,5.97,0,0,1-.858-.817.516.516,0,0,1-.231-.272l-.005-.015a11.661,11.661,0,0,1-2.127-7.044A13.987,13.987,0,0,1,5.386,19.3,35.093,35.093,0,0,0,1,36.338ZM43.682,49.271H62.774V46.9a.428.428,0,0,1,.048-.208v-.929H43.682Zm24.872-.047V47.329H63.769v1.895Zm-51.4-1.563a1.042,1.042,0,1,0,1.042-1.042A1.051,1.051,0,0,0,17.151,47.66Zm52.3,1.017a35.349,35.349,0,0,0,.1-24.437v.442a.429.429,0,0,1-.142.331l-2.2,2.2a3.061,3.061,0,0,1,1.3.829,3.373,3.373,0,0,1,.995,2.369V41.075a3.341,3.341,0,0,1-2.41,3.228l2.11,2.11a.48.48,0,0,1,.3.441.418.418,0,0,1-.048.188ZM35.959,47.489V46.37q-.4-.019-.763-.068A7.012,7.012,0,0,1,35.959,47.489Zm.948-.26a5.966,5.966,0,0,1,.681-.932c-.265.048-.5.079-.681.1ZM29.7,46.835a8.943,8.943,0,0,1-.469-2.444.43.43,0,0,1,.142-.331.511.511,0,0,1,.331-.142A9.344,9.344,0,0,1,30.942,44a8.711,8.711,0,0,1-1.711-4.769.43.43,0,0,1,.142-.332.511.511,0,0,1,.331-.142,9.441,9.441,0,0,1,1.2.073,7.029,7.029,0,0,1-.706-1.1,2.468,2.468,0,0,1-1.816,1.6l-.047,4.6c0,.019,0,.037,0,.054Zm38.19-.454-1.706-1.706-1.706,1.706Zm-4.121-.664,1.411-1.411a3.071,3.071,0,0,1-1.411-.862v2.274Zm-26.815-.284c1.421-.19,5.4-1.042,5.685-5.685A5.912,5.912,0,0,0,36.954,45.434Zm-4.009-.881a6.139,6.139,0,0,1,.675.356,6.637,6.637,0,0,0,2.292.525,6.437,6.437,0,0,0-2.581-4.744,6.132,6.132,0,0,1-.919-.483,6.647,6.647,0,0,0-2.185-.458A6.411,6.411,0,0,0,32.945,44.553Zm29.876.265V41.626q-.027-.155-.039-.314h-19.1v3.506ZM8.671,43.633a1.042,1.042,0,1,0,2.084,0,.994.994,0,0,0-1.042-1.042A1.051,1.051,0,0,0,8.671,43.633ZM41.966,44c.309-.057.573-.09.769-.109v-.983A5.968,5.968,0,0,1,41.966,44ZM64.48,42.781a2.252,2.252,0,0,0,1.706.711,2.376,2.376,0,0,0,2.369-2.369V30.463a2.4,2.4,0,0,0-.711-1.706,2.324,2.324,0,0,0-1.705-.711,2.375,2.375,0,0,0-2.369,2.369V40.7a.48.48,0,0,1,0,.35v.027A2.4,2.4,0,0,0,64.48,42.781Zm-41.928-5.97a1.437,1.437,0,0,0,1.422,1.469.431.431,0,0,1,.331.142.512.512,0,0,1,.142.332l-.047,4.6h2.89l.047-4.548a.43.43,0,0,1,.142-.332.511.511,0,0,1,.332-.142,1.467,1.467,0,0,0,1.469-1.422,1.436,1.436,0,0,0-1.421-1.469,1.467,1.467,0,0,0-1.469,1.421.474.474,0,1,1-.947,0A1.436,1.436,0,0,0,24.02,35.39,1.467,1.467,0,0,0,22.552,36.811Zm13.407,5.513V41.254q-.374-.018-.721-.062A7.046,7.046,0,0,1,35.959,42.325Zm.948-.212a5.973,5.973,0,0,1,.732-.989c-.286.054-.536.087-.732.108ZM4.6,36.338V41.6H19.236V36.338a.95.95,0,0,0-.948-.948H5.544A.95.95,0,0,0,4.6,36.338Zm57.8,4.027-2.04-2.974a3.5,3.5,0,0,1-1.562.369,3.573,3.573,0,0,1-3.032-1.715l-3.2,1.349a2.564,2.564,0,0,1-1.125.475l-5.913,2.5Zm-25.443-.048c1.421-.189,5.4-1.042,5.685-5.685A5.912,5.912,0,0,0,36.954,40.317Zm-4.011-.929a6.187,6.187,0,0,1,.679.358,6.635,6.635,0,0,0,2.29.524,6.328,6.328,0,0,0-2.945-4.938.46.46,0,0,1-.219-.115,6.487,6.487,0,0,0-2.521-.632A6.412,6.412,0,0,0,32.943,39.388Zm10.5-.492a.512.512,0,0,1,.142.332q0,.505-.047.964l5.424-2.29H45.2a2.548,2.548,0,0,1-2.064-1.039,6.063,6.063,0,0,1-1.22,2.036,7.756,7.756,0,0,1,1.2-.144A.43.43,0,0,1,43.444,38.9Zm19.33.324v-8.8A3.381,3.381,0,0,1,65.15,27.2l-2.137-2.137a.482.482,0,0,1-.133-.155,4.232,4.232,0,0,1-3.517,3.607V30.7a3.542,3.542,0,0,1,1.787,6.153ZM35.959,37.208V25.015a.492.492,0,0,1,0-.07,7.628,7.628,0,0,1-2.184.307h-.237v9.33A6.347,6.347,0,0,1,35.959,37.208Zm.948-12.194V36.948a6.286,6.286,0,0,1,2.416-2.3v-9.4h-.237a7.444,7.444,0,0,1-2.186-.306A.375.375,0,0,1,36.907,25.015Zm6.728,10.328A1.577,1.577,0,0,0,45.2,36.906h5.827a1.527,1.527,0,0,0,.475-.076l.238-.1a1.577,1.577,0,0,0,.85-1.387v-1.5a2.361,2.361,0,0,1-.806-.536.829.829,0,0,0-1.326,0,1.684,1.684,0,0,1-1.326.616,1.846,1.846,0,0,1-1.327-.616.829.829,0,0,0-1.326,0,1.684,1.684,0,0,1-1.326.616,1.845,1.845,0,0,1-1.326-.616,2.144,2.144,0,0,0-.19-.173Zm12.6-1.184a2.558,2.558,0,1,0,3.127-2.5v.411a.51.51,0,0,1-.474.474.475.475,0,0,1-.474-.474v-.446A2.546,2.546,0,0,0,56.236,34.158ZM53.583,35.39a2.459,2.459,0,0,1-.072.591l1.872-.79a3.482,3.482,0,0,1-.142-.985,3.583,3.583,0,0,1,3.174-3.533V28.558a4.212,4.212,0,0,1-3.192-6.587q-.155.011-.314.011a4.183,4.183,0,0,1-1.711-.364l.337.648a.355.355,0,0,1,.047.237V35.39Zm-27.62.095a2.424,2.424,0,0,1,1.942-.948A2.4,2.4,0,0,1,29.322,35a7.444,7.444,0,0,1-.09-.867c0-.007,0-.014,0-.021h0V21.324c-.463-1.051-.968-2.225-1.326-3.064v5.949a.557.557,0,0,1-.521.474H23.973V34.49h.047A2.337,2.337,0,0,1,25.963,35.485ZM18.288,34.4a1.954,1.954,0,0,1,1.089.325v-1.6H17.956V34.4Zm2.037,0h2.7V24.683h-2.7Zm-3.316,0V33.116H6.823V34.4ZM40.271,34.2a9.424,9.424,0,0,1,2.369-.579V23.493a3.466,3.466,0,0,1-2.369,1.69ZM32.6,34.127V25.183A3.46,3.46,0,0,1,30.179,23.4V33.648A7.757,7.757,0,0,1,32.6,34.127Zm15.871-1.484a.829.829,0,0,0,1.326,0,1.684,1.684,0,0,1,1.326-.616,1.845,1.845,0,0,1,1.326.616c.051.051.1.1.143.134v-3.34a2.363,2.363,0,0,1-.806-.537.829.829,0,0,0-1.326,0,1.685,1.685,0,0,1-1.327.616A1.845,1.845,0,0,1,47.8,28.9a.829.829,0,0,0-1.326,0,1.685,1.685,0,0,1-1.327.616,1.845,1.845,0,0,1-1.326-.616,2.156,2.156,0,0,0-.189-.172v3.364a2.268,2.268,0,0,1,.853.551.829.829,0,0,0,1.326,0,1.684,1.684,0,0,1,1.326-.616A1.846,1.846,0,0,1,48.467,32.642Zm-29.184-.474V30.889H4.549v1.279H19.283Zm.094-2.227V24.683H16.24a8.941,8.941,0,0,1-2.915,5.259Zm-8.527-.095c2.378,0,4.361-3,4.69-6.908V20.657a10.149,10.149,0,0,0-1.851-5.294,7.283,7.283,0,0,1-2.507,6.81c-3.745,3.565-3.064,6.1-2.949,6.331A3.534,3.534,0,0,0,10.85,29.847Zm37.616-1.611a.829.829,0,0,0,1.326,0,1.686,1.686,0,0,1,1.327-.616,1.845,1.845,0,0,1,1.326.616c.051.051.1.1.143.134V25.077a2.366,2.366,0,0,1-.806-.536.829.829,0,0,0-1.326,0,1.684,1.684,0,0,1-1.326.616,1.848,1.848,0,0,1-1.327-.616.829.829,0,0,0-1.326,0,1.684,1.684,0,0,1-1.326.616,1.846,1.846,0,0,1-1.326-.616,2.144,2.144,0,0,0-.19-.173v3.317a2.265,2.265,0,0,1,.852.551.829.829,0,0,0,1.327,0,1.685,1.685,0,0,1,1.326-.616A1.845,1.845,0,0,1,48.466,28.236Zm6.965-3.884A3.269,3.269,0,1,0,58.7,21.083,3.276,3.276,0,0,0,55.431,24.352ZM6.113,21.793A11.881,11.881,0,0,0,7.191,26.9c.2-1.323.966-3.229,3.28-5.442,3.706-3.569,1.978-7,1.769-7.364a2.956,2.956,0,0,0-1.39-.358C8.244,13.739,6.113,17.34,6.113,21.793Zm60.025,5.069,1.706-1.706H64.432ZM36.623,23.83a6.129,6.129,0,0,0,2.464.474h.474a2.651,2.651,0,0,0,2.321-1.374c.711-1.469,2.7-6.111,2.7-6.159v-.047a4.94,4.94,0,0,0,.474-2.037A4.772,4.772,0,0,0,40.271,9.9a4.875,4.875,0,0,0-3.453,1.462.483.483,0,0,1-.384.2h-.011a.5.5,0,0,1-.368-.142A4.875,4.875,0,0,0,32.548,9.9a4.771,4.771,0,0,0-4.643,3.617v2.346a3.788,3.788,0,0,0,.332.86v.047c0,.033.986,2.32,1.817,4.2a.473.473,0,0,1,.124.28c.3.679.574,1.284.759,1.679A2.562,2.562,0,0,0,33.259,24.3h.474A6.129,6.129,0,0,0,36.2,23.83a.427.427,0,0,1,.237-.047A.285.285,0,0,1,36.623,23.83Zm27.146.379h4.785V22.267H63.769Zm-15.3-.331a.829.829,0,0,0,1.326,0,1.684,1.684,0,0,1,1.326-.616,1.845,1.845,0,0,1,1.326.616c.051.051.1.1.143.134V22.6L50.22,18.05H45.861a48.6,48.6,0,0,1-2.227,4.6v.68a2.27,2.27,0,0,1,.853.551.829.829,0,0,0,1.326,0,1.684,1.684,0,0,1,1.326-.616A1.846,1.846,0,0,1,48.467,23.878Zm14.4-.16V21.961a4.231,4.231,0,0,1-.426.021q-.133,0-.264-.008A4.193,4.193,0,0,1,62.869,23.718Zm-46.381-.03H26.911V15.421a5.742,5.742,0,0,1-.047-.734,5.83,5.83,0,0,1,.047-.74V12.839H22.694v1.326a2.281,2.281,0,0,1-.965,1.86,1.943,1.943,0,1,1-2.564.037,2.281,2.281,0,0,1-1.019-1.9v-3.7H16.488V20.622q.047.575.048,1.171t-.048,1.18Zm51.865-2.321a35.329,35.329,0,0,0-1.711-3.206,4.227,4.227,0,0,1-2.009,3.206Zm-5.909-.379a3.269,3.269,0,1,0-3.269-3.269A3.276,3.276,0,0,0,62.443,20.988Zm-10.8-3.269A3.269,3.269,0,1,0,54.91,14.45,3.276,3.276,0,0,0,51.641,17.719ZM58.4,20.146q.149-.011.3-.011.133,0,.264.008a4.225,4.225,0,0,1-.283-.477A4.2,4.2,0,0,1,58.4,20.146ZM19.472,17.482a1,1,0,1,0,1-1A.971.971,0,0,0,19.472,17.482Zm31.079-.426a.455.455,0,0,1,.2.041,4.236,4.236,0,0,1,3.242-3.445A7.624,7.624,0,0,1,51.16,9.626a4.967,4.967,0,0,1-.846,1.129,5.6,5.6,0,0,1-2.934,1.421h3.172a.475.475,0,0,1,.474.474v2.464a.475.475,0,0,1-.474.474H49.84v1.469Zm-5.075.009a.557.557,0,0,1,.1-.009h.71V15.587h-.355A5.409,5.409,0,0,1,45.477,17.065Zm3.463-.009V15.587H47.282v1.469Zm-33.4-.361V10a6.086,6.086,0,0,1,.6-2.635,35.7,35.7,0,0,0-6.18,5.5,3.62,3.62,0,0,1,.895-.113C12.791,12.744,14.513,14.314,15.54,16.695Zm3.127-7.172A.475.475,0,0,1,19.14,10v4.169a.658.658,0,0,1-.041.131,1.327,1.327,0,0,0,2.647-.131v-1.8a.475.475,0,0,1,.474-.474h4.691V9.949a5.156,5.156,0,0,0-5.164-5.211,5.282,5.282,0,0,0-1.887.347q-.669.354-1.321.737a5.188,5.188,0,0,0-2.033,3.7Zm39.56,5.646v-.207l-.182-.009Q58.139,15.057,58.227,15.168Zm.948-.06a4.209,4.209,0,0,1,4.263-1.44,35.627,35.627,0,0,0-4.263-4.29ZM46.1,14.592h3.98V13.076H46.1Zm11.376-.68-2.849-2.92a.469.469,0,0,1,.663-.663l2.757,2.827a6.489,6.489,0,0,0-6.277-5.617q-.013.182-.038.36A6.583,6.583,0,0,0,57.474,13.912ZM45.439,12.2a.466.466,0,0,1,.138-.021H46a5.172,5.172,0,0,1-.637-.127Q45.4,12.123,45.439,12.2ZM27.906,10v1.387A5.717,5.717,0,0,1,31.849,9a7.579,7.579,0,0,1-4.035-6.966A35.026,35.026,0,0,0,22.39,3.869,6.078,6.078,0,0,1,27.906,10Zm15.87.047a3.929,3.929,0,0,0,2.938,1.185,4.2,4.2,0,0,0,2.937-1.185A3.749,3.749,0,0,0,50.769,7.9c-.017-.119-.029-.228-.04-.324H42.617A4.211,4.211,0,0,0,43.776,10.044Zm14.451.676V8.6a35.386,35.386,0,0,0-7.461-4.53A5.038,5.038,0,0,1,51.754,6.6,7.113,7.113,0,0,1,58.227,10.72Zm-21.32-.682a5.775,5.775,0,0,1,5.171-.795,5.152,5.152,0,0,1-.431-1.927.474.474,0,0,1-.05-.209q0-.011,0-.021a6.458,6.458,0,0,1-4.69,1.957ZM32.548,8.243a9.583,9.583,0,0,0,2.512.843L32.217,6.064A.469.469,0,1,1,32.88,5.4l2.929,3.111a6.494,6.494,0,0,0-3.686-5.385,11.687,11.687,0,0,0-3.316-.9A6.615,6.615,0,0,0,32.548,8.243Zm7.581-3.316a.458.458,0,0,1,0,.663l-2.35,2.384a5.688,5.688,0,0,0,4.766-5.368,5.55,5.55,0,0,0-5.363,4.638l2.284-2.317a.458.458,0,0,1,.663,0ZM50.81,6.633a4.213,4.213,0,0,0-1.159-2.464,4,4,0,0,0-2.937-1.185,4.284,4.284,0,0,0-2.938,1.185,3.816,3.816,0,0,0-1.162,2.464ZM35.959,5.695V1a35.3,35.3,0,0,0-5.766.534A8.176,8.176,0,0,1,35.959,5.695Zm.948-.442a6.326,6.326,0,0,1,6.16-3.595A.43.43,0,0,1,43.4,1.8a.511.511,0,0,1,.142.331,7.355,7.355,0,0,1-.131,1.149,4.993,4.993,0,0,1,2.147-1.068A35.278,35.278,0,0,0,36.907,1ZM25.632,62.3Zm-.474-3.79a.51.51,0,0,1,.474-.474,3.6,3.6,0,0,0,3.6-3.6.475.475,0,0,1,.474-.474.509.509,0,0,1,.474.474,4.519,4.519,0,0,1-4.548,4.548A.475.475,0,0,1,25.158,58.51Zm35.3-3.364a1.8,1.8,0,1,1,1.8,1.8A1.8,1.8,0,0,1,60.453,55.146Zm.948,0a.853.853,0,0,0,1.706,0,.881.881,0,0,0-.853-.852A.849.849,0,0,0,61.4,55.146ZM58.227,25.962a.51.51,0,0,1,.474-.474,1.153,1.153,0,0,0,1.137-1.137.475.475,0,0,1,.474-.474.51.51,0,0,1,.474.474A2.1,2.1,0,0,1,58.7,26.436.475.475,0,0,1,58.227,25.962Zm3.743-6.585a.51.51,0,0,1,.474-.474,1.153,1.153,0,0,0,1.137-1.137.475.475,0,0,1,.474-.474.51.51,0,0,1,.474.474,2.1,2.1,0,0,1-2.085,2.085A.475.475,0,0,1,61.97,19.377Zm-7.533,0a.51.51,0,0,1,.474-.474,1.153,1.153,0,0,0,1.137-1.137.475.475,0,0,1,.474-.474.51.51,0,0,1,.474.474,2.1,2.1,0,0,1-2.085,2.085A.475.475,0,0,1,54.436,19.377Z" transform="translate(-24009.48 6827.585)"/>
      <g id="Group_4286" data-name="Group 4286" transform="translate(-23967.078 6955.169)">
        <g id="Group_4269" data-name="Group 4269" transform="translate(0 0.142)">
          <path id="Path_8171" data-name="Path 8171" class="cls-2" d="M256.932,430.742h-1.611a.521.521,0,1,1,0-1.042h4.359a.521.521,0,1,1,0,1.042h-1.611v4.975a.576.576,0,0,1-.569.569.547.547,0,0,1-.569-.569Z" transform="translate(-254.8 -429.7)"/>
        </g>
        <g id="Group_4270" data-name="Group 4270" transform="translate(6.585 0.047)">
          <path id="Path_8172" data-name="Path 8172" class="cls-2" d="M268.7,430.068a.569.569,0,0,1,1.137,0V432.3h3.127v-2.227a.568.568,0,0,1,1.137,0v5.5a.568.568,0,0,1-1.137,0v-2.227h-3.127v2.227a.569.569,0,0,1-1.137,0Z" transform="translate(-268.7 -429.5)"/>
        </g>
        <g id="Group_4271" data-name="Group 4271" transform="translate(13.739 0.095)">
          <path id="Path_8173" data-name="Path 8173" class="cls-2" d="M283.8,435.569v-5.4a.547.547,0,0,1,.569-.569h3.837a.521.521,0,1,1,0,1.042h-3.269v1.706h2.843a.521.521,0,0,1,0,1.042h-2.843v1.753h3.316a.521.521,0,0,1,0,1.042h-3.885A.588.588,0,0,1,283.8,435.569Z" transform="translate(-283.8 -429.6)"/>
        </g>
        <g id="Group_4272" data-name="Group 4272" transform="translate(22.551)">
          <path id="Path_8174" data-name="Path 8174" class="cls-2" d="M302.4,432.811h0a3.356,3.356,0,0,1,3.364-3.411,3.465,3.465,0,0,1,2.227.663.65.65,0,0,1,.237.474.547.547,0,0,1-.569.569.537.537,0,0,1-.379-.142,2.434,2.434,0,0,0-1.611-.521,2.2,2.2,0,0,0-2.132,2.321h0a2.2,2.2,0,0,0,2.227,2.369,2.663,2.663,0,0,0,1.563-.474v-1.232h-1.279a.519.519,0,0,1-.521-.474.526.526,0,0,1,.521-.521H307.9a.547.547,0,0,1,.568.568v1.753a.735.735,0,0,1-.426.711,4.216,4.216,0,0,1-2.322.711A3.222,3.222,0,0,1,302.4,432.811Z" transform="translate(-302.4 -429.4)"/>
        </g>
        <g id="Group_4273" data-name="Group 4273" transform="translate(29.894)">
          <path id="Path_8175" data-name="Path 8175" class="cls-2" d="M317.9,432.811h0a3.378,3.378,0,0,1,3.458-3.411,3.3,3.3,0,0,1,3.411,3.364h0a3.378,3.378,0,0,1-3.458,3.411A3.328,3.328,0,0,1,317.9,432.811Zm5.685,0h0a2.287,2.287,0,0,0-2.227-2.369,2.246,2.246,0,0,0-2.227,2.321h0a2.246,2.246,0,0,0,2.227,2.321A2.206,2.206,0,0,0,323.585,432.811Z" transform="translate(-317.9 -429.4)"/>
        </g>
        <g id="Group_4274" data-name="Group 4274" transform="translate(37.854)">
          <path id="Path_8176" data-name="Path 8176" class="cls-2" d="M334.7,432.811h0a3.378,3.378,0,0,1,3.458-3.411,3.3,3.3,0,0,1,3.411,3.364h0a3.378,3.378,0,0,1-3.458,3.411A3.328,3.328,0,0,1,334.7,432.811Zm5.685,0h0a2.287,2.287,0,0,0-2.227-2.369,2.217,2.217,0,0,0-2.227,2.321h0a2.246,2.246,0,0,0,2.227,2.321A2.206,2.206,0,0,0,340.385,432.811Z" transform="translate(-334.7 -429.4)"/>
        </g>
        <g id="Group_4275" data-name="Group 4275" transform="translate(46.145 0.095)">
          <path id="Path_8177" data-name="Path 8177" class="cls-2" d="M352.2,430.169a.547.547,0,0,1,.569-.569h1.848a3.279,3.279,0,0,1,3.506,3.269h0a3.279,3.279,0,0,1-3.506,3.269h-1.848a.547.547,0,0,1-.569-.568Zm2.464,4.927a2.152,2.152,0,0,0,2.274-2.227h0a2.152,2.152,0,0,0-2.274-2.227h-1.279V435.1h1.279Z" transform="translate(-352.2 -429.6)"/>
        </g>
        <g id="Group_4276" data-name="Group 4276" transform="translate(56.283 0.095)">
          <path id="Path_8178" data-name="Path 8178" class="cls-2" d="M373.6,430.169a.547.547,0,0,1,.569-.569h3.838a.521.521,0,0,1,0,1.042h-3.269v1.8h2.843a.521.521,0,0,1,0,1.042h-2.843v2.132a.569.569,0,1,1-1.137,0Z" transform="translate(-373.6 -429.6)"/>
        </g>
        <g id="Group_4277" data-name="Group 4277" transform="translate(62.11)">
          <path id="Path_8179" data-name="Path 8179" class="cls-2" d="M385.9,432.811h0a3.378,3.378,0,0,1,3.458-3.411,3.3,3.3,0,0,1,3.411,3.364h0a3.378,3.378,0,0,1-3.458,3.411A3.3,3.3,0,0,1,385.9,432.811Zm5.638,0h0a2.287,2.287,0,0,0-2.227-2.369,2.217,2.217,0,0,0-2.227,2.321h0a2.246,2.246,0,0,0,2.227,2.321A2.206,2.206,0,0,0,391.538,432.811Z" transform="translate(-385.9 -429.4)"/>
        </g>
        <g id="Group_4278" data-name="Group 4278" transform="translate(70.07)">
          <path id="Path_8180" data-name="Path 8180" class="cls-2" d="M402.7,432.811h0a3.378,3.378,0,0,1,3.458-3.411,3.3,3.3,0,0,1,3.411,3.364h0a3.378,3.378,0,0,1-3.459,3.411A3.328,3.328,0,0,1,402.7,432.811Zm5.638,0h0a2.287,2.287,0,0,0-2.227-2.369,2.217,2.217,0,0,0-2.227,2.321h0a2.246,2.246,0,0,0,2.227,2.321A2.206,2.206,0,0,0,408.338,432.811Z" transform="translate(-402.7 -429.4)"/>
        </g>
        <g id="Group_4279" data-name="Group 4279" transform="translate(78.313 0.095)">
          <path id="Path_8181" data-name="Path 8181" class="cls-2" d="M420.1,430.169a.547.547,0,0,1,.568-.569h1.848a3.279,3.279,0,0,1,3.506,3.269h0a3.279,3.279,0,0,1-3.506,3.269h-1.848a.547.547,0,0,1-.568-.568Zm2.464,4.927a2.152,2.152,0,0,0,2.274-2.227h0a2.152,2.152,0,0,0-2.274-2.227h-1.279V435.1h1.279Z" transform="translate(-420.1 -429.6)"/>
        </g>
        <g id="Group_4280" data-name="Group 4280" transform="translate(88.073 0.095)">
          <path id="Path_8182" data-name="Path 8182" class="cls-2" d="M440.937,435.427A.5.5,0,0,1,440.7,435a.526.526,0,0,1,.521-.521.552.552,0,0,1,.332.095,2.847,2.847,0,0,0,1.848.663c.711,0,1.184-.332,1.184-.805h0c0-.474-.284-.711-1.469-.995-1.421-.332-2.179-.758-2.179-1.942h0a2,2,0,0,1,2.227-1.9,3.851,3.851,0,0,1,2.084.616.545.545,0,0,1-.284.995.673.673,0,0,1-.284-.095,2.711,2.711,0,0,0-1.516-.474c-.663,0-1.09.332-1.09.758h0c0,.521.284.711,1.563,1.042,1.374.332,2.085.853,2.085,1.942h0c0,1.232-.948,1.942-2.369,1.942A4.345,4.345,0,0,1,440.937,435.427Z" transform="translate(-440.7 -429.6)"/>
        </g>
        <g id="Group_4281" data-name="Group 4281" transform="translate(93.852 0.142)">
          <path id="Path_8183" data-name="Path 8183" class="cls-2" d="M455.032,430.742h-1.611a.521.521,0,1,1,0-1.042h4.359a.521.521,0,0,1,0,1.042h-1.611v4.975a.576.576,0,0,1-.569.569.547.547,0,0,1-.569-.569Z" transform="translate(-452.9 -429.7)"/>
        </g>
        <g id="Group_4282" data-name="Group 4282" transform="translate(99.774)">
          <path id="Path_8184" data-name="Path 8184" class="cls-2" d="M465.4,432.811h0a3.378,3.378,0,0,1,3.458-3.411,3.3,3.3,0,0,1,3.411,3.364h0a3.378,3.378,0,0,1-3.458,3.411A3.328,3.328,0,0,1,465.4,432.811Zm5.685,0h0a2.287,2.287,0,0,0-2.227-2.369,2.217,2.217,0,0,0-2.227,2.321h0a2.246,2.246,0,0,0,2.227,2.321A2.206,2.206,0,0,0,471.085,432.811Z" transform="translate(-465.4 -429.4)"/>
        </g>
        <g id="Group_4283" data-name="Group 4283" transform="translate(108.065 0.095)">
          <path id="Path_8185" data-name="Path 8185" class="cls-2" d="M482.9,430.169a.547.547,0,0,1,.569-.569h2.369a2.63,2.63,0,0,1,1.9.663,2.1,2.1,0,0,1,.521,1.421h0a1.912,1.912,0,0,1-1.469,1.942l1.279,1.563a.852.852,0,0,1,.189.426.536.536,0,0,1-.569.521.738.738,0,0,1-.569-.284l-1.611-2.037h-1.469v1.753a.568.568,0,0,1-1.137,0Zm2.843,2.7c.805,0,1.374-.426,1.374-1.09h0c0-.711-.521-1.09-1.374-1.09h-1.658v2.227h1.658Z" transform="translate(-482.9 -429.6)"/>
        </g>
        <g id="Group_4284" data-name="Group 4284" transform="translate(114.082)">
          <path id="Path_8186" data-name="Path 8186" class="cls-2" d="M498.016,433.522l-2.274-3.127a.579.579,0,0,1-.142-.426.547.547,0,0,1,.569-.569.723.723,0,0,1,.569.332l1.848,2.653,1.848-2.653A.722.722,0,0,1,501,429.4a.547.547,0,0,1,.569.569,1.507,1.507,0,0,1-.142.426l-2.227,3.079v2.037a.569.569,0,1,1-1.137,0v-1.99Z" transform="translate(-495.6 -429.4)"/>
        </g>
        <g id="Group_4285" data-name="Group 4285" transform="translate(119.72 5.306)">
          <path id="Path_8187" data-name="Path 8187" class="cls-2" d="M508.163,440.6a.648.648,0,0,1,.663.663v.095a.663.663,0,0,1-1.327,0v-.095A.648.648,0,0,1,508.163,440.6Z" transform="translate(-507.5 -440.6)"/>
        </g>
      </g>
    </g>
    <rect id="Rectangle_2820" data-name="Rectangle 2820" class="cls-3" width="317" height="151" transform="translate(372 55)"/>
  </g>
</svg>
