<svg xmlns="http://www.w3.org/2000/svg" viewBox="0 0 100 100">
  <defs>
    <style>
      .cls-1 {
        fill: none;
      }
    </style>
  </defs>
  <g id="Menu_Icon" data-name="Menu Icon" transform="translate(-14 -88)">
    <g id="Menu_Icon-2" data-name="Menu Icon" transform="translate(-302 56.821)">
      <g id="Symbol_45_1" data-name="Symbol 45 – 1" transform="translate(339.001 60)">
        <path id="Union_6" data-name="Union 6" d="M3.785,42.9a3.786,3.786,0,0,1,0-7.572H34.071a3.786,3.786,0,1,1,0,7.572Zm0-17.667a3.785,3.785,0,0,1,0-7.571H49.215a3.785,3.785,0,0,1,0,7.571ZM29.024,7.572a3.786,3.786,0,0,1,0-7.572H49.215a3.786,3.786,0,0,1,0,7.572Z" transform="translate(0 0)"/>
      </g>
    </g>
    <rect id="Rectangle_2818" data-name="Rectangle 2818" class="cls-1" width="100" height="100" transform="translate(14 88)"/>
  </g>
</svg>
