<svg xmlns="http://www.w3.org/2000/svg" viewBox="0 0 94 94">
  <defs>
    <style>
      .cls-1 {
        fill: #e6e9ed;
      }

      .cls-13, .cls-2, .cls-5, .cls-9 {
        fill: #fff;
      }

      .cls-3 {
        opacity: 0.2;
      }

      .cls-4 {
        fill: #ed5564;
      }

      .cls-5 {
        opacity: 0.4;
      }

      .cls-10, .cls-6 {
        opacity: 0.3;
      }

      .cls-14, .cls-7 {
        fill: none;
      }

      .cls-7 {
        stroke: #3a3847;
        stroke-linecap: round;
        stroke-linejoin: round;
        stroke-miterlimit: 10;
      }

      .cls-8 {
        fill: #ffd2a6;
      }

      .cls-9 {
        opacity: 0.5;
      }

      .cls-11 {
        fill: #a0d468;
      }

      .cls-12 {
        fill: #ffce54;
      }

      .cls-13 {
        opacity: 0.7;
      }
    </style>
  </defs>
  <g id="Branded_food_icon" data-name="Branded food icon" transform="translate(-118 -1255)">
    <g id="_x31_2._soup_x2C__spoon_x2C__plate_x2C__food_x2C__restaurant_x2C__egg_1_" transform="translate(122.5 1266.5)">
      <circle id="Ellipse_1" data-name="Ellipse 1" class="cls-1" cx="35" cy="35" r="35" transform="translate(0.5 0.5)"/>
      <path id="Path_298" data-name="Path 298" class="cls-2" d="M3.192,35.5A35.11,35.11,0,0,1,36.846.5H35.5a35,35,0,0,0,0,70h1.346A35.11,35.11,0,0,1,3.192,35.5Z"/>
      <path id="Path_299" data-name="Path 299" class="cls-3" d="M59.154,35.5A35.11,35.11,0,0,1,25.5,70.5h1.346a35,35,0,1,0,0-70H25.5A35.11,35.11,0,0,1,59.154,35.5Z" transform="translate(8.654)"/>
      <circle id="Ellipse_2" data-name="Ellipse 2" class="cls-4" cx="25.577" cy="25.577" r="25.577" transform="translate(9.923 9.923)"/>
      <path id="Path_300" data-name="Path 300" class="cls-5" d="M10.192,33.077A25.458,25.458,0,0,1,34.423,7.635c-.4,0-.942-.135-1.346-.135a25.577,25.577,0,0,0,0,51.154,4.58,4.58,0,0,0,1.346-.135A25.458,25.458,0,0,1,10.192,33.077Z" transform="translate(2.423 2.423)"/>
      <path id="Path_301" data-name="Path 301" class="cls-6" d="M49.731,33.077A25.458,25.458,0,0,1,25.5,58.519c.4,0,.942.135,1.346.135a25.577,25.577,0,1,0,0-51.154,4.58,4.58,0,0,0-1.346.135A25.458,25.458,0,0,1,49.731,33.077Z" transform="translate(8.654 2.423)"/>
      <path id="Path_302" data-name="Path 302" class="cls-7" d="M34.5,27.5Z" transform="translate(11.769 9.346)"/>
      <path id="Path_303" data-name="Path 303" class="cls-7" d="M18.5,34.5Z" transform="translate(6.231 11.769)"/>
      <path id="Path_304" data-name="Path 304" class="cls-7" d="M33.5,20.5Z" transform="translate(11.423 6.923)"/>
      <path id="Path_305" data-name="Path 305" class="cls-7" d="M32.5,11.5Z" transform="translate(11.077 3.808)"/>
      <path id="Path_306" data-name="Path 306" class="cls-7" d="M20.5,20.5Z" transform="translate(6.923 6.923)"/>
      <path id="Path_307" data-name="Path 307" class="cls-7" d="M28.5,38.5Z" transform="translate(9.692 13.154)"/>
      <path id="Path_308" data-name="Path 308" class="cls-7" d="M23.5,41.5Z" transform="translate(7.962 14.192)"/>
      <path id="Path_309" data-name="Path 309" class="cls-1" d="M61.192,20.3V52.877a1.346,1.346,0,0,1-2.692,0V20.3a3.5,3.5,0,0,0,2.692,0Z" transform="translate(20.077 6.854)"/>
      <g id="Group_15" data-name="Group 15" transform="translate(78.577 27.154)">
        <path id="Path_310" data-name="Path 310" class="cls-2" d="M59.846,52.877V20.569A3.983,3.983,0,0,1,58.5,20.3V52.877a1.448,1.448,0,0,0,1.346,1.346,1.028,1.028,0,0,0,.673-.269A1.066,1.066,0,0,1,59.846,52.877Z" transform="translate(-58.5 -20.3)"/>
        <path id="Path_311" data-name="Path 311" class="cls-2" d="M60.673,20.569V20.3a1.214,1.214,0,0,1-.673.135A1.214,1.214,0,0,0,60.673,20.569Z" transform="translate(-57.981 -20.3)"/>
      </g>
      <path id="Path_312" data-name="Path 312" class="cls-1" d="M60.885,8.5c2.962,0,5.385,3.635,5.385,8.077,0,3.769-1.75,6.865-4.038,7.808a3.5,3.5,0,0,1-2.692,0c-2.288-.942-4.038-4.038-4.038-7.808C55.5,12.135,57.923,8.5,60.885,8.5Z" transform="translate(19.038 2.769)"/>
      <path id="Path_313" data-name="Path 313" class="cls-2" d="M60.885,24.385c-2.288-.942-4.038-4.038-4.038-7.808,0-4.173,2.019-7.538,4.712-7.942-.269,0-.4-.135-.673-.135-2.962,0-5.385,3.635-5.385,8.077,0,3.769,1.75,6.865,4.038,7.808a3.983,3.983,0,0,0,1.346.269h.673C61.288,24.519,61.154,24.519,60.885,24.385Z" transform="translate(19.038 2.769)"/>
      <path id="Path_314" data-name="Path 314" class="cls-3" d="M59.673,24.385c2.288-.942,4.038-4.038,4.038-7.808,0-4.173-2.019-7.538-4.712-7.942.269,0,.4-.135.673-.135,2.962,0,5.385,3.635,5.385,8.077,0,3.769-1.75,6.865-4.038,7.808a3.983,3.983,0,0,1-1.346.269H59C59.269,24.519,59.4,24.519,59.673,24.385Z" transform="translate(20.25 2.769)"/>
      <path id="Path_315" data-name="Path 315" class="cls-8" d="M15.062,26.473l.808,3.9L12.908,29.7,12.1,25.8Z" transform="translate(4.015 8.758)"/>
      <path id="Path_316" data-name="Path 316" class="cls-9" d="M14.254,29.7l-.673-3.635L12.1,25.8l.808,3.9,2.962.673-.135-.269Z" transform="translate(4.015 8.758)"/>
      <path id="Path_317" data-name="Path 317" class="cls-8" d="M41.762,24.735,43.377,28.5l-2.962-.269L38.8,24.6Z" transform="translate(13.258 8.342)"/>
      <path id="Path_318" data-name="Path 318" class="cls-9" d="M41.762,28.235l-1.615-3.5L38.8,24.6l1.615,3.635,2.962.269v-.135Z" transform="translate(13.258 8.342)"/>
      <path id="Path_319" data-name="Path 319" class="cls-8" d="M35.638,37.8l-.269,3.1L31.6,42.377l.269-3.1Z" transform="translate(10.765 12.912)"/>
      <path id="Path_320" data-name="Path 320" class="cls-9" d="M33.215,39.281l2.423-.942V37.8l-3.769,1.481-.269,3.1,1.481-.538Z" transform="translate(10.765 12.912)"/>
      <path id="Path_321" data-name="Path 321" class="cls-1" d="M32.653,27.7a5.616,5.616,0,0,1-7.942,7.942c-2.154-2.154-4.442-7.942-2.288-10.1C24.711,23.256,30.365,25.545,32.653,27.7Zm-2.288,5.654c.942-.942.673-2.692-.538-3.9s-2.962-1.481-3.9-.538-.673,2.692.538,3.9S29.422,34.295,30.365,33.352Z" transform="translate(7.289 8.34)"/>
      <g id="Group_16" data-name="Group 16" class="cls-10" transform="translate(31.731 32.915)">
        <path id="Path_322" data-name="Path 322" d="M31.912,27.7c-1.615-1.615-5.519-3.365-8.212-3.1a12.938,12.938,0,0,1,6.865,3.1,5.688,5.688,0,0,1,0,7.942,5.315,5.315,0,0,1-3.231,1.615,5.415,5.415,0,0,0,4.577-1.615A5.689,5.689,0,0,0,31.912,27.7Z" transform="translate(-23.7 -24.58)"/>
      </g>
      <g id="Group_17" data-name="Group 17" transform="translate(28.847 33.043)">
        <path id="Path_323" data-name="Path 323" class="cls-2" d="M26.057,35.613c-2.154-2.154-4.442-7.942-2.288-10.1a2.74,2.74,0,0,1,2.019-.808,4.532,4.532,0,0,0-3.365.808c-2.154,2.154.135,7.942,2.288,10.1a5.856,5.856,0,0,0,4.577,1.615A8.124,8.124,0,0,1,26.057,35.613Z" transform="translate(-21.557 -24.675)"/>
      </g>
      <path id="Path_324" data-name="Path 324" class="cls-11" d="M30.976,18.69a3.708,3.708,0,0,1-3.9.673c-1.615-.808-5.25-4.308-4.442-5.923s5.788-.808,7.4,0a3.34,3.34,0,0,1,1.481,4.442A.909.909,0,0,1,30.976,18.69Z" transform="translate(7.62 4.156)"/>
      <path id="Path_325" data-name="Path 325" class="cls-6" d="M29.585,13.448a12.461,12.461,0,0,0-5.385-.942,12.726,12.726,0,0,1,4.038.942,3.34,3.34,0,0,1,1.481,4.442,1.979,1.979,0,0,1-.673.808,3.937,3.937,0,0,1-1.615.942,3.018,3.018,0,0,0,2.962-.942,3.569,3.569,0,0,0,.673-.808A3.34,3.34,0,0,0,29.585,13.448Z" transform="translate(8.204 4.148)"/>
      <path id="Path_326" data-name="Path 326" class="cls-9" d="M28.528,19.374c-1.615-.808-5.25-4.308-4.442-5.923.269-.538,1.077-.808,2.154-.942-1.615-.135-2.962.135-3.5.942-.942,1.615,2.692,5.115,4.442,5.923a3.038,3.038,0,0,0,2.154.269A1.913,1.913,0,0,1,28.528,19.374Z" transform="translate(7.645 4.145)"/>
      <path id="Path_327" data-name="Path 327" class="cls-12" d="M28.85,28.509c1.212,1.212,1.481,2.962.538,3.9s-2.692.673-3.9-.538-1.481-2.962-.538-3.9C25.753,26.894,27.638,27.163,28.85,28.509Z" transform="translate(8.266 9.279)"/>
      <path id="Path_328" data-name="Path 328" class="cls-6" d="M28.5,28.5a3.322,3.322,0,0,0-3.1-1.077A3.469,3.469,0,0,1,27.15,28.5c1.212,1.212,1.481,2.962.538,3.9a1.164,1.164,0,0,1-.808.4,2.866,2.866,0,0,0,2.154-.4C29.977,31.46,29.708,29.71,28.5,28.5Z" transform="translate(8.619 9.29)"/>
      <path id="Path_329" data-name="Path 329" class="cls-13" d="M26.83,31.821c-1.212-1.212-1.481-2.962-.538-3.9a1.164,1.164,0,0,1,.808-.4,2.866,2.866,0,0,0-2.154.4c-.942.942-.673,2.692.538,3.9a3.322,3.322,0,0,0,3.1,1.077A4.75,4.75,0,0,1,26.83,31.821Z" transform="translate(8.266 9.333)"/>
      <g id="Group_18" data-name="Group 18" transform="translate(0.5 0.5)">
        <circle id="Ellipse_3" data-name="Ellipse 3" class="cls-7" cx="35" cy="35" r="35"/>
        <circle id="Ellipse_4" data-name="Ellipse 4" class="cls-7" cx="25.577" cy="25.577" r="25.577" transform="translate(9.423 9.423)"/>
        <path id="Path_330" data-name="Path 330" class="cls-7" d="M59.538,24.385c-2.288-.942-4.038-4.038-4.038-7.808,0-4.442,2.423-8.077,5.385-8.077s5.385,3.635,5.385,8.077c0,3.769-1.75,6.865-4.038,7.808a3.5,3.5,0,0,1-2.692,0Z" transform="translate(18.538 2.269)"/>
        <line id="Line_55" data-name="Line 55" class="cls-7" y2="32.577" transform="translate(78.077 26.654)"/>
        <line id="Line_56" data-name="Line 56" class="cls-7" y2="32.577" transform="translate(80.769 26.654)"/>
        <path id="Path_331" data-name="Path 331" class="cls-7" d="M61.192,44.5a1.346,1.346,0,0,1-2.692,0" transform="translate(19.577 14.731)"/>
        <path id="Path_332" data-name="Path 332" class="cls-7" d="M15.869,30.377,12.908,29.7,12.1,25.8l2.962.673Z" transform="translate(3.515 8.258)"/>
        <path id="Path_333" data-name="Path 333" class="cls-7" d="M31.6,42.377l.269-3.1L35.638,37.8l-.269,3.1Z" transform="translate(10.265 12.412)"/>
        <path id="Path_334" data-name="Path 334" class="cls-7" d="M43.377,28.5l-2.962-.269L38.8,24.6l2.962.135Z" transform="translate(12.758 7.842)"/>
        <path id="Path_335" data-name="Path 335" class="cls-7" d="M32.653,27.7a5.616,5.616,0,0,1-7.942,7.942c-2.154-2.154-4.442-7.942-2.288-10.1C24.711,23.256,30.365,25.545,32.653,27.7Z" transform="translate(6.789 7.84)"/>
        <path id="Path_336" data-name="Path 336" class="cls-7" d="M28.85,28.509c1.212,1.212,1.481,2.962.538,3.9s-2.692.673-3.9-.538-1.481-2.962-.538-3.9C25.753,26.894,27.638,27.163,28.85,28.509Z" transform="translate(7.766 8.779)"/>
        <path id="Path_337" data-name="Path 337" class="cls-7" d="M25.5,14.5A7.023,7.023,0,0,1,29.942,18a9.214,9.214,0,0,1,.942,3.231" transform="translate(8.154 4.346)"/>
        <path id="Path_338" data-name="Path 338" class="cls-7" d="M27.172,19.363c-1.615-.808-5.25-4.308-4.442-5.923s5.788-.808,7.4,0a3.34,3.34,0,0,1,1.481,4.442,1.979,1.979,0,0,1-.673.808A3.092,3.092,0,0,1,27.172,19.363Z" transform="translate(7.155 3.656)"/>
        <path id="Path_339" data-name="Path 339" class="cls-7" d="M14.5,20.2s0-3.1,4.038-2.692" transform="translate(4.346 5.375)"/>
        <path id="Path_340" data-name="Path 340" class="cls-7" d="M35.5,31.5a3.655,3.655,0,0,0,4.038,2.692" transform="translate(11.615 10.231)"/>
        <path id="Path_341" data-name="Path 341" class="cls-7" d="M14.5,36.5s.673,3.1,5.385,4.038" transform="translate(4.346 11.962)"/>
        <path id="Path_342" data-name="Path 342" class="cls-7" d="M37.5,17.518s1.346-.538,2.692,1.346" transform="translate(12.308 5.366)"/>
      </g>
    </g>
    <rect id="Rectangle_2824" data-name="Rectangle 2824" class="cls-14" width="94" height="94" transform="translate(118 1255)"/>
  </g>
</svg>
