<svg xmlns="http://www.w3.org/2000/svg" viewBox="0 0 160 159">
  <defs>
    <style>
      .cls-1 {
        opacity: 0.097;
      }

      .cls-2 {
        fill: #f37024;
      }

      .cls-3 {
        fill: none;
      }
    </style>
  </defs>
  <g id="Profile_Picture_icon" data-name="Profile Picture icon" transform="translate(-336 -218)">
    <g id="Group_4451" data-name="Group 4451" class="cls-1" transform="translate(276.488 -559.985)">
      <path id="Path_2852" data-name="Path 2852" d="M116.076,104.383l-3.223-15.124A30.111,30.111,0,0,0,99.216,69.919l-19.091-11.9a25.465,25.465,0,0,0,5.207-13.637l1.488-14.133C89.05,14.133,76.157,0,59.793,0H56.818A27.628,27.628,0,0,0,29.3,30.5l1.488,14.133a29.583,29.583,0,0,0,5.207,13.637L16.9,70.167A30.416,30.416,0,0,0,3.51,89.259L.287,104.383a16.343,16.343,0,0,0,15.868,19.587h84.052A16.1,16.1,0,0,0,116.076,104.383ZM45.412,17.356A15.192,15.192,0,0,1,56.818,12.4h2.975A15.192,15.192,0,0,1,71.2,17.356a14.5,14.5,0,0,1,3.719,11.653L73.43,43.142a15.206,15.206,0,0,1-30.249,0L41.693,29.009A14.5,14.5,0,0,1,45.412,17.356Zm57.77,92.73a3.75,3.75,0,0,1-2.975,1.488H16.155a4.238,4.238,0,0,1-2.975-1.488,3.911,3.911,0,0,1-.744-3.223l3.223-15.124a17.5,17.5,0,0,1,7.934-11.157L46.156,66.448a27.905,27.905,0,0,0,11.9,2.727,27.084,27.084,0,0,0,11.9-2.727L92.521,80.581a18.15,18.15,0,0,1,7.934,11.157l3.223,15.124A2.659,2.659,0,0,1,103.183,110.086Z" transform="translate(80.026 796)"/>
      <path id="Path_2853" data-name="Path 2853" class="cls-2" d="M44.1,48.4H31.7a6.138,6.138,0,0,1-6.2-6.2h0A6.138,6.138,0,0,1,31.7,36H44.1a6.138,6.138,0,0,1,6.2,6.2h0A6.138,6.138,0,0,1,44.1,48.4Z" transform="translate(117.791 849.259)"/>
    </g>
    <rect id="Rectangle_2871" data-name="Rectangle 2871" class="cls-3" width="160" height="159" transform="translate(336 218)"/>
  </g>
</svg>
