<svg xmlns="http://www.w3.org/2000/svg" viewBox="0 0 66 66">
  <defs>
    <style>
      .cls-1 {
        fill: #58595b;
      }

      .cls-2 {
        fill: #f15a29;
      }

      .cls-3 {
        fill: none;
      }
    </style>
  </defs>
  <g id="Share_icon" data-name="Share icon" transform="translate(-884 -265)">
    <g id="Group_3967" data-name="Group 3967" transform="translate(895 279.046)">
      <path id="Path_7934" data-name="Path 7934" class="cls-1" d="M43.4,17.5,25.4.5A2.021,2.021,0,0,0,22,2v8.3c-.5.1-1,.1-1.5.2a2.034,2.034,0,0,0-1.7,2h0a2.062,2.062,0,0,0,2.4,2,29.092,29.092,0,0,1,3.1-.4,2.046,2.046,0,0,0,1.8-2V6.6L39.1,19,26,31.4V25a2.03,2.03,0,0,0-2.1-2c-1.1,0-2.2.1-3.3.2a1.985,1.985,0,0,0-1.9,2h0a2,2,0,0,0,2.2,2c.4,0,.7-.1,1.1-.1v9a2.021,2.021,0,0,0,3.4,1.5l18-17A2.3,2.3,0,0,0,43.4,17.5Z"/>
      <path id="Path_7935" data-name="Path 7935" class="cls-2" d="M4.5,28.1A15.273,15.273,0,0,1,11.6,18a21.148,21.148,0,0,1,3-1.6,1.975,1.975,0,0,0,1.2-1.8h0A2,2,0,0,0,13,12.8a23.7,23.7,0,0,0-3.5,1.9C3.4,18.4,0,24.5,0,33a2.042,2.042,0,0,0,3.6,1.3c2.4-3,6.2-4.9,10.7-6.1a1.927,1.927,0,0,0,1.5-1.9h0a1.937,1.937,0,0,0-2.5-1.9A23.176,23.176,0,0,0,4.5,28.1Z"/>
    </g>
    <rect id="Rectangle_2838" data-name="Rectangle 2838" class="cls-3" width="66" height="66" transform="translate(884 265)"/>
  </g>
</svg>
