<svg xmlns="http://www.w3.org/2000/svg" viewBox="0 0 45 45">
  <defs>
    <style>
      .cls-1 {
        fill: #fff;
        fill-rule: evenodd;
      }

      .cls-2 {
        fill: none;
      }
    </style>
  </defs>
  <g id="Snapchat_icon" data-name="Snapchat icon" transform="translate(-305 -2517)">
    <path id="Shape" class="cls-1" d="M30.127,18.872a6.665,6.665,0,0,1,6.2,3.99c.546,1.223.406,3.44.294,5.22-.018.283-.035.556-.049.818l-.006.112.075.084a1.337,1.337,0,0,0,.945.354H37.6a3.691,3.691,0,0,0,1.4-.384.683.683,0,0,1,.281-.052.941.941,0,0,1,.354.067l.016.006c.268.094.457.271.46.43,0,.09-.066.416-1.015.791-.093.037-.215.076-.356.12-.617.2-1.55.492-1.864,1.231a1.727,1.727,0,0,0,.144,1.461c.112.261,1.874,4.23,5.838,4.883a.176.176,0,0,1-.016.064c-.067.158-.494.705-3.152,1.115-.416.064-.518.53-.636,1.072-.043.194-.086.39-.146.592-.018.061-.022.065-.087.065H38.79a2.93,2.93,0,0,1-.5-.065,7.8,7.8,0,0,0-1.553-.164,6.871,6.871,0,0,0-1.128.1,5.386,5.386,0,0,0-2.175,1.1,5.583,5.583,0,0,1-3.4,1.352c-.065,0-.128,0-.191-.005h-.033c-.036,0-.073,0-.11,0a5.58,5.58,0,0,1-3.4-1.352,5.389,5.389,0,0,0-2.175-1.1,6.89,6.89,0,0,0-1.128-.1,7.655,7.655,0,0,0-1.553.175,3.172,3.172,0,0,1-.5.075c-.1,0-.1-.006-.118-.075-.06-.2-.1-.4-.146-.6-.118-.542-.22-1.011-.636-1.075-2.657-.41-3.085-.958-3.152-1.116A.193.193,0,0,1,16.873,38c3.964-.653,5.726-4.621,5.838-4.883a1.723,1.723,0,0,0,.144-1.461c-.314-.739-1.246-1.035-1.863-1.231-.142-.045-.264-.084-.357-.12-.8-.316-1.047-.635-1.011-.828.042-.223.429-.449.766-.449a.462.462,0,0,1,.191.035,3.574,3.574,0,0,0,1.485.387A1.371,1.371,0,0,0,23.1,29.1l.075-.083-.006-.112c-.014-.261-.031-.535-.049-.817-.112-1.781-.252-4,.294-5.219a6.658,6.658,0,0,1,6.184-3.987l.475,0h.06" transform="translate(297.221 2508.628)"/>
    <rect id="Rectangle_2905" data-name="Rectangle 2905" class="cls-2" width="45" height="45" transform="translate(305 2517)"/>
  </g>
</svg>
