<svg xmlns="http://www.w3.org/2000/svg" viewBox="0 0 64 64">
  <defs>
    <style>
      .cls-1 {
        fill: #383839;
      }

      .cls-2 {
        fill: none;
      }
    </style>
  </defs>
  <g id="Rating_star_unfilled_icon" data-name="Rating star unfilled icon" transform="translate(-277 -1244)">
    <path id="Path_7726" data-name="Path 7726" class="cls-1" d="M12.114,40.545l10.512-5.471a2.272,2.272,0,0,1,2.038,0l10.512,5.471a.394.394,0,0,0,.322.107V40.33L33.46,28.745a2.162,2.162,0,0,1,.644-1.931l8.474-8.259.215-.215a.394.394,0,0,1-.322-.107L30.778,16.517a2.062,2.062,0,0,1-1.609-1.18L23.913,4.825c-.107-.107-.107-.215-.215-.322-.107.107-.107.215-.215.322L18.228,15.337a2.247,2.247,0,0,1-1.609,1.18L4.82,18.233a.394.394,0,0,0-.322.107l.215.215,8.474,8.259a2.162,2.162,0,0,1,.644,1.931L11.792,40.33v.322C11.9,40.652,12.007,40.545,12.114,40.545Zm11.477-1.18L14.152,44.3c-3.862,2.038-7.294-.429-6.543-4.72L9.432,29.067l-7.616-7.4c-3.111-3.111-1.824-6.972,2.467-7.616l10.619-1.5L19.622,3c1.931-3.969,6.114-3.969,8.045,0l4.72,9.547,10.619,1.5c4.4.644,5.685,4.612,2.467,7.616l-7.616,7.4,1.824,10.512c.751,4.291-2.574,6.758-6.543,4.72l-9.547-4.934Z" transform="translate(284.856 1252.975)"/>
    <rect id="Rectangle_2840" data-name="Rectangle 2840" class="cls-2" width="64" height="64" transform="translate(277 1244)"/>
  </g>
</svg>
