<svg id="Twitter_Icon" data-name="Twitter Icon" xmlns="http://www.w3.org/2000/svg" viewBox="0 0 84.294 84.294">
  <defs>
    <style>
      .cls-1 {
        fill: #bababa;
      }

      .cls-2 {
        fill: #fff;
        fill-rule: evenodd;
      }
    </style>
  </defs>
  <ellipse id="Oval-1" class="cls-1" cx="42.147" cy="42.147" rx="42.147" ry="42.147" transform="translate(0 0)"/>
  <path id="Fill-1" class="cls-2" d="M57.777,21.738a13.655,13.655,0,0,1-5.268,1.869v0a8.445,8.445,0,0,0-14.338,7.72h0a23.393,23.393,0,0,1-17.412-8.765,8.451,8.451,0,0,0,2.562,11.16,5.43,5.43,0,0,1-3.688-.956c-.058,2.942,1.357,6.841,6.516,8.255a6.688,6.688,0,0,1-3.517.267c.268,2.484,3.747,5.731,7.55,5.731-1.356,1.568-6.456,4.412-12.18,3.507a25.379,25.379,0,0,0,13.213,3.735A23.466,23.466,0,0,0,54.853,29.6c0-.015,0-.03,0-.046,0-.035,0-.07,0-.106s0-.082-.005-.123A14.571,14.571,0,0,0,58.943,25a14.8,14.8,0,0,1-4.684,1.329,8.974,8.974,0,0,0,3.518-4.588" transform="translate(3.676 4.288)"/>
</svg>
