<svg xmlns="http://www.w3.org/2000/svg" viewBox="0 0 45 45">
  <defs>
    <style>
      .cls-1 {
        fill: #fff;
        fill-rule: evenodd;
      }

      .cls-2 {
        fill: none;
      }
    </style>
  </defs>
  <g id="Twitter_icon" data-name="Twitter icon" transform="translate(-93 -2517)">
    <path id="Fill-1" class="cls-1" d="M47.124,21.541a10,10,0,0,1-3.857,1.369v0a6.183,6.183,0,0,0-10.5,5.653h0a17.128,17.128,0,0,1-12.749-6.417,6.188,6.188,0,0,0,1.876,8.171,3.975,3.975,0,0,1-2.7-.7,5.96,5.96,0,0,0,4.771,6.044,4.9,4.9,0,0,1-2.575.2c.2,1.819,2.743,4.2,5.528,4.2C25.925,41.2,22.191,43.284,18,42.622a18.582,18.582,0,0,0,9.674,2.735A17.181,17.181,0,0,0,44.984,27.295c0-.011,0-.022,0-.034s0-.051,0-.078,0-.06,0-.09a10.669,10.669,0,0,0,3-3.166,10.838,10.838,0,0,1-3.429.973,6.57,6.57,0,0,0,2.576-3.359" transform="translate(82.366 2506.499)"/>
    <rect id="Rectangle_2902" data-name="Rectangle 2902" class="cls-2" width="45" height="45" transform="translate(93 2517)"/>
  </g>
</svg>
