<svg xmlns="http://www.w3.org/2000/svg" viewBox="0 0 70 70">
  <defs>
    <style>
      .cls-1 {
        fill: #f37024;
      }

      .cls-2 {
        fill: none;
      }
    </style>
  </defs>
  <g id="Enter_email_id_icon" data-name="Enter email id icon" transform="translate(-74 -753)">
    <g id="Group_4497" data-name="Group 4497" transform="translate(10.464 -28.127)">
      <path id="Path_2852" data-name="Path 2852" d="M37.032,33.318,36,28.49a9.611,9.611,0,0,0-4.353-6.173l-6.094-3.8a8.128,8.128,0,0,0,1.662-4.353l.475-4.511A8.587,8.587,0,0,0,19.067,0h-.95A8.818,8.818,0,0,0,9.333,9.734l.475,4.511A9.442,9.442,0,0,0,11.47,18.6L5.376,22.4A9.708,9.708,0,0,0,1.1,28.49L.074,33.318A5.216,5.216,0,0,0,5.139,39.57H31.967A5.138,5.138,0,0,0,37.032,33.318ZM14.477,5.54a4.849,4.849,0,0,1,3.64-1.583h.95a4.849,4.849,0,0,1,3.64,1.583,4.628,4.628,0,0,1,1.187,3.72L23.42,13.77a4.853,4.853,0,0,1-9.655,0L13.29,9.259A4.628,4.628,0,0,1,14.477,5.54Zm18.439,29.6a1.2,1.2,0,0,1-.95.475H5.139a1.353,1.353,0,0,1-.95-.475,1.248,1.248,0,0,1-.237-1.029L4.98,29.282A5.586,5.586,0,0,1,7.513,25.72l7.2-4.511a8.907,8.907,0,0,0,3.8.871,8.645,8.645,0,0,0,3.8-.871l7.2,4.511a5.793,5.793,0,0,1,2.532,3.561l1.029,4.828A.849.849,0,0,1,32.916,35.138Z" transform="translate(80.026 796)"/>
      <path id="Path_2853" data-name="Path 2853" class="cls-1" d="M31.435,39.957H27.478A1.959,1.959,0,0,1,25.5,37.978h0A1.959,1.959,0,0,1,27.478,36h3.957a1.959,1.959,0,0,1,1.978,1.978h0A1.959,1.959,0,0,1,31.435,39.957Z" transform="translate(74.702 788.49)"/>
    </g>
    <rect id="Rectangle_2832" data-name="Rectangle 2832" class="cls-2" width="70" height="70" transform="translate(74 753)"/>
    <rect id="Rectangle_2833" data-name="Rectangle 2833" class="cls-2" width="70" height="70" transform="translate(74 753)"/>
  </g>
</svg>
