<svg xmlns="http://www.w3.org/2000/svg" viewBox="0 0 45 45">
  <defs>
    <style>
      .cls-1 {
        fill: #fff;
      }

      .cls-2 {
        fill: none;
      }
    </style>
  </defs>
  <g id="Youtube_icon" data-name="Youtube icon" transform="translate(-233 -2517)">
    <path id="Path_2488" data-name="Path 2488" class="cls-1" d="M34.339,5.28a7.47,7.47,0,0,0-1.387-3.43A4.914,4.914,0,0,0,29.483.385C24.627,0,17.343,0,17.343,0h0S10.059,0,5.2.347A4.858,4.858,0,0,0,1.734,1.811,7.469,7.469,0,0,0,.347,5.241,52.7,52.7,0,0,0,0,10.868v2.621a52.7,52.7,0,0,0,.347,5.627,7.469,7.469,0,0,0,1.387,3.43A5.625,5.625,0,0,0,5.55,24.01c2.775.27,11.793.347,11.793.347s7.284,0,12.14-.347a4.858,4.858,0,0,0,3.469-1.464,7.47,7.47,0,0,0,1.387-3.43,52.463,52.463,0,0,0,.347-5.588V10.906A51.757,51.757,0,0,0,34.339,5.28ZM13.759,16.687V6.937l9.365,4.894Z" transform="translate(237.98 2527.499)"/>
    <rect id="Rectangle_2904" data-name="Rectangle 2904" class="cls-2" width="45" height="45" transform="translate(233 2517)"/>
  </g>
</svg>
